<svg id="svg" version="1.1" xmlns="http://www.w3.org/2000/svg" xmlns:xlink="http://www.w3.org/1999/xlink" width="400" height="400" viewBox="0, 0, 400,400"><g id="svgg"><path id="path0" d="M221.484 62.137 C 217.725 62.754,213.154 63.460,211.328 63.706 C 209.502 63.951,205.723 64.591,202.930 65.127 C 200.137 65.663,195.691 66.511,193.050 67.012 C 176.136 70.219,153.371 76.707,140.430 82.009 C 139.785 82.273,138.203 82.890,136.914 83.378 C 135.625 83.867,133.391 84.819,131.950 85.493 C 130.509 86.167,129.191 86.719,129.021 86.719 C 127.654 86.719,114.794 93.237,105.273 98.754 C 95.023 104.695,86.759 110.435,79.492 116.661 C 77.773 118.134,75.527 120.014,74.499 120.839 C 68.561 125.606,61.095 133.632,54.062 142.807 C 53.224 143.900,52.037 145.435,51.424 146.218 L 50.308 147.642 50.349 159.856 C 50.371 166.574,50.503 177.191,50.643 183.451 L 50.898 194.831 49.474 196.255 C 46.789 198.940,46.681 199.280,47.826 201.432 L 48.828 203.314 48.828 215.498 L 48.828 227.682 46.973 229.151 C 40.704 234.113,39.569 237.572,43.180 240.712 L 44.141 241.547 44.141 257.155 L 44.141 272.764 40.820 275.870 C 36.572 279.845,36.524 282.421,40.629 286.137 C 41.447 286.876,41.717 298.803,41.068 305.469 L 40.820 308.008 30.794 308.203 L 20.768 308.398 19.075 309.578 C 14.932 312.464,15.354 316.268,20.066 318.504 C 21.621 319.242,390.770 319.512,392.705 318.776 C 396.030 317.512,397.908 313.980,396.597 311.455 C 395.127 308.621,394.362 308.424,383.984 308.203 L 374.805 308.008 368.750 295.883 C 359.441 277.242,359.128 276.445,360.423 274.693 C 361.158 273.699,361.224 272.868,361.416 262.211 L 361.620 250.794 351.620 250.690 L 341.620 250.586 341.255 249.414 C 340.840 248.084,338.697 242.453,335.235 233.594 C 333.934 230.264,332.739 227.012,332.579 226.367 C 332.420 225.723,331.961 224.452,331.560 223.544 C 330.709 221.618,331.259 220.200,333.028 219.756 C 334.035 219.504,334.129 218.733,334.052 211.328 C 334.042 210.361,334.023 205.835,334.009 201.270 L 333.984 192.969 328.418 192.974 C 322.746 192.980,321.094 193.168,321.094 193.812 C 321.094 194.010,320.698 195.041,320.215 196.102 L 319.336 198.031 302.464 198.039 C 291.046 198.044,285.511 197.914,285.338 197.635 C 284.786 196.741,284.038 191.207,284.417 190.820 C 284.627 190.605,285.802 190.254,287.029 190.039 L 289.258 189.648 289.360 175.147 L 289.463 160.646 288.237 160.401 C 287.563 160.267,281.485 160.156,274.730 160.156 C 259.966 160.156,260.605 160.400,258.831 154.102 C 257.918 150.861,255.441 143.670,254.592 141.797 C 250.818 133.467,250.819 132.997,254.622 131.074 C 255.615 130.572,255.850 130.260,255.618 129.759 C 255.450 129.397,255.245 123.433,255.163 116.504 L 255.013 103.906 250.436 103.906 C 245.861 103.906,244.922 103.656,244.922 102.440 C 244.922 102.148,244.580 101.160,244.162 100.243 C 243.745 99.326,242.771 96.743,241.998 94.503 C 241.226 92.262,239.617 87.617,238.423 84.180 C 237.229 80.742,235.573 75.820,234.743 73.242 C 233.913 70.664,233.029 68.027,232.777 67.383 C 232.526 66.738,232.013 65.068,231.638 63.672 C 230.796 60.534,231.035 60.570,221.484 62.137 M223.895 72.912 C 224.288 73.268,224.609 73.787,224.609 74.066 C 224.609 74.752,227.835 84.414,229.464 88.608 C 230.188 90.469,230.976 92.619,231.216 93.384 C 231.457 94.150,232.718 97.402,234.020 100.611 C 235.322 103.820,236.577 107.009,236.808 107.697 C 237.098 108.556,237.547 109.020,238.244 109.177 C 243.264 110.304,241.408 111.873,234.375 112.446 C 231.260 112.700,226.777 113.257,224.414 113.684 C 222.051 114.111,218.887 114.635,217.383 114.850 C 214.140 115.314,210.488 116.087,210.673 116.272 C 210.745 116.344,213.867 116.472,217.609 116.556 C 224.529 116.711,234.249 118.039,234.841 118.911 C 235.569 119.983,233.147 120.682,226.563 121.301 C 225.166 121.432,222.881 121.872,221.484 122.278 C 215.228 124.098,211.404 124.832,203.320 125.763 C 201.387 125.986,198.047 126.516,195.898 126.941 C 193.750 127.366,190.498 127.979,188.672 128.304 C 184.596 129.027,174.216 131.343,168.945 132.706 C 166.797 133.261,163.896 134.011,162.499 134.373 C 157.099 135.774,137.552 142.215,132.080 144.398 C 130.280 145.116,128.610 145.704,128.369 145.706 C 128.127 145.707,127.402 145.984,126.758 146.322 C 126.113 146.660,122.949 148.052,119.727 149.416 C 113.812 151.920,110.294 153.654,103.516 157.407 C 101.475 158.538,98.223 160.257,96.289 161.229 C 85.099 166.852,66.187 181.681,62.513 187.712 C 61.881 188.750,60.949 189.257,60.549 188.782 C 60.408 188.614,60.421 184.785,60.578 180.273 C 60.735 175.762,60.883 166.709,60.906 160.156 L 60.948 148.242 63.311 145.508 C 64.611 144.004,66.345 141.895,67.165 140.820 C 70.858 135.981,74.671 132.111,80.636 127.148 C 81.669 126.289,83.152 125.051,83.933 124.397 C 85.222 123.318,90.829 119.166,95.951 115.498 C 97.054 114.709,98.059 114.063,98.185 114.063 C 98.312 114.063,99.167 113.557,100.086 112.939 C 106.523 108.613,111.237 105.973,121.875 100.735 C 125.850 98.778,130.068 96.688,131.250 96.090 C 134.321 94.535,144.993 90.310,152.734 87.584 C 161.241 84.588,179.733 79.670,186.736 78.540 C 188.123 78.317,191.807 77.592,194.922 76.930 C 198.037 76.268,202.344 75.478,204.492 75.176 C 206.641 74.873,211.563 74.113,215.430 73.485 C 219.297 72.858,222.623 72.327,222.821 72.305 C 223.019 72.284,223.502 72.557,223.895 72.912 M216.211 91.324 C 214.120 91.526,209.193 92.668,208.691 93.067 C 208.332 93.353,208.203 95.397,208.203 100.829 C 208.203 106.478,208.317 108.199,208.691 108.184 C 210.159 108.128,217.213 107.136,217.388 106.961 C 217.502 106.847,217.547 103.257,217.489 98.983 L 217.383 91.211 216.211 91.324 M181.401 97.250 C 179.658 97.614,177.373 98.338,176.323 98.859 L 174.414 99.805 174.308 107.924 L 174.203 116.044 175.324 115.464 C 175.940 115.146,177.306 114.671,178.359 114.409 C 179.412 114.148,180.705 113.655,181.233 113.315 C 181.760 112.974,182.245 112.747,182.310 112.810 C 182.375 112.873,183.042 112.810,183.792 112.669 L 185.156 112.413 185.156 104.449 C 185.156 100.068,185.024 96.507,184.863 96.536 C 184.702 96.564,183.144 96.885,181.401 97.250 M148.031 108.134 C 145.568 109.139,143.334 110.103,143.066 110.277 C 142.188 110.846,142.382 125.555,143.262 125.192 C 145.904 124.099,150.644 122.656,151.593 122.656 C 152.221 122.656,152.751 122.524,152.771 122.363 C 152.946 120.942,152.920 106.560,152.742 106.450 C 152.614 106.371,150.494 107.128,148.031 108.134 M117.027 121.095 C 111.449 123.610,111.891 122.784,112.051 130.391 C 112.216 138.257,111.751 137.687,116.349 135.659 C 117.070 135.341,118.564 134.774,119.669 134.398 L 121.680 133.715 121.786 126.428 C 121.844 122.420,121.757 119.148,121.591 119.156 C 121.425 119.165,119.371 120.037,117.027 121.095 M92.773 134.201 C 91.270 135.152,89.476 136.225,88.787 136.584 C 87.199 137.413,87.271 136.973,87.500 144.464 L 87.695 150.842 89.186 149.829 C 90.005 149.273,91.675 148.469,92.897 148.044 C 96.719 146.714,97.028 145.549,95.970 136.451 L 95.508 132.472 92.773 134.201 M244.359 140.430 C 245.492 144.012,248.309 153.045,249.279 156.207 C 250.256 159.387,250.157 159.474,245.379 159.643 C 240.364 159.821,241.208 161.192,237.272 146.484 C 236.956 145.303,236.418 143.483,236.077 142.441 C 235.305 140.080,235.513 139.824,239.268 138.502 C 243.161 137.132,243.338 137.199,244.359 140.430 M216.126 143.143 C 219.377 144.604,221.049 147.747,225.591 160.938 L 226.868 164.648 238.337 164.915 C 256.288 165.332,275.891 166.344,278.809 167.004 C 279.697 167.205,280.003 168.455,279.389 169.375 C 278.466 170.757,277.917 170.777,244.978 170.641 C 207.088 170.485,203.297 170.724,181.641 174.637 C 179.170 175.083,176.006 175.601,174.609 175.788 C 173.213 175.974,168.994 176.741,165.234 177.493 C 158.242 178.890,157.591 179.016,154.883 179.492 C 154.023 179.644,151.563 180.265,149.414 180.873 C 147.266 181.480,144.805 182.097,143.945 182.244 C 143.086 182.390,140.801 183.006,138.867 183.612 C 136.934 184.219,134.736 184.886,133.984 185.095 C 133.232 185.304,130.156 186.376,127.148 187.477 C 124.141 188.578,120.361 189.892,118.750 190.397 C 117.139 190.902,114.854 191.696,113.672 192.161 C 112.490 192.626,110.908 193.247,110.156 193.540 C 107.750 194.479,102.620 196.710,99.937 197.983 C 98.506 198.663,97.232 199.219,97.106 199.219 C 96.980 199.219,93.983 200.622,90.446 202.336 C 84.729 205.107,81.949 206.578,74.805 210.613 C 73.730 211.220,71.885 212.252,70.703 212.906 C 69.521 213.561,67.540 214.835,66.300 215.739 C 57.940 221.833,57.809 221.874,57.818 218.434 C 57.825 215.974,57.993 215.565,59.277 214.888 C 60.140 214.434,60.156 214.291,60.156 207.325 L 60.156 200.225 61.800 198.550 C 64.816 195.477,65.386 196.195,65.809 203.606 C 66.066 208.092,66.157 208.540,66.738 208.178 C 67.093 207.957,69.229 206.496,71.484 204.931 L 75.586 202.085 75.815 196.257 C 76.141 187.992,77.113 185.938,80.700 185.938 C 82.982 185.938,83.803 187.622,84.208 193.137 C 84.359 195.193,84.548 196.875,84.628 196.875 C 85.058 196.875,94.419 192.071,94.878 191.615 C 95.282 191.213,95.433 189.704,95.473 185.675 C 95.532 179.748,95.821 178.742,98.167 176.270 C 101.452 172.808,105.870 176.763,105.944 183.231 C 105.966 185.149,106.032 186.719,106.090 186.719 C 106.148 186.719,107.306 186.212,108.664 185.594 C 110.022 184.975,111.765 184.267,112.538 184.020 C 113.311 183.774,114.769 183.049,115.779 182.408 L 117.616 181.243 117.367 179.000 C 116.268 169.126,122.007 161.709,127.796 165.521 C 129.933 166.929,132.138 172.572,131.359 174.638 C 130.826 176.051,131.138 177.470,131.917 177.171 C 132.228 177.052,133.919 176.531,135.675 176.014 C 137.430 175.497,139.570 174.837,140.430 174.548 L 141.992 174.022 142.190 169.921 C 142.390 165.771,142.540 165.242,144.801 160.673 C 149.643 150.889,159.766 153.704,159.766 164.835 C 159.766 167.418,159.910 169.531,160.087 169.531 C 160.264 169.531,161.812 169.111,163.526 168.598 C 165.240 168.085,167.644 167.458,168.868 167.204 L 171.094 166.741 171.094 163.859 C 171.094 145.293,190.791 140.502,191.695 158.847 L 191.914 163.292 197.226 163.189 L 202.539 163.086 202.777 158.203 C 203.131 150.960,204.823 147.354,209.180 144.560 C 212.601 142.366,213.837 142.114,216.126 143.143 M72.363 149.449 L 69.922 151.218 69.922 157.868 L 69.922 164.519 71.387 163.384 C 72.192 162.760,73.511 161.852,74.316 161.367 L 75.781 160.483 75.781 157.058 C 75.781 152.921,75.365 147.652,75.040 147.668 C 74.911 147.674,73.706 148.475,72.363 149.449 M263.583 178.530 C 270.099 179.000,271.094 179.278,271.094 180.631 C 271.094 182.059,271.703 182.005,253.073 182.235 C 226.315 182.564,216.049 183.120,206.122 184.776 C 203.581 185.200,200.846 185.547,200.044 185.547 C 198.827 185.547,196.631 186.516,197.266 186.773 C 197.373 186.816,209.502 186.978,224.219 187.132 C 258.140 187.487,256.647 187.144,250.625 193.196 C 244.118 199.734,243.558 201.446,243.545 214.844 L 243.536 224.805 241.660 224.925 C 238.845 225.105,238.818 225.045,238.552 217.871 C 238.055 204.462,234.382 196.537,226.900 192.732 C 218.630 188.527,209.904 192.175,205.460 201.694 C 203.411 206.084,203.125 208.157,203.125 218.606 L 203.125 227.694 221.582 227.687 C 240.645 227.680,241.540 227.727,260.156 229.682 C 277.298 231.483,278.628 231.646,285.938 232.852 C 298.977 235.003,302.947 235.867,307.129 237.462 C 308.322 237.917,308.557 239.063,307.617 239.844 C 307.040 240.323,301.207 240.202,298.828 239.662 C 298.291 239.540,296.621 239.357,295.117 239.255 C 293.613 239.153,288.691 238.632,284.180 238.098 C 272.649 236.733,268.288 236.362,261.133 236.136 C 257.695 236.028,250.928 235.719,246.094 235.450 C 235.027 234.834,190.742 234.867,181.445 235.499 C 177.793 235.747,173.223 236.044,171.289 236.158 C 169.355 236.273,163.379 236.962,158.008 237.691 C 152.637 238.419,147.451 239.119,146.484 239.246 C 145.518 239.374,144.375 239.557,143.945 239.653 C 143.516 239.749,142.461 239.934,141.602 240.063 C 140.742 240.192,136.787 240.977,132.813 241.807 C 128.838 242.636,124.883 243.431,124.023 243.573 C 122.652 243.800,113.634 245.898,107.422 247.436 C 104.425 248.178,100.778 249.264,90.625 252.438 C 85.791 253.949,81.045 255.414,80.078 255.695 C 77.828 256.348,70.865 258.835,69.336 259.532 C 68.691 259.826,67.461 260.304,66.602 260.595 C 65.742 260.886,62.935 262.153,60.363 263.411 C 53.923 266.559,51.715 266.411,54.683 263.031 L 55.912 261.631 55.817 254.124 L 55.721 246.617 57.580 243.845 C 59.270 241.327,60.357 240.305,60.838 240.786 C 60.936 240.884,60.991 245.041,60.959 250.023 C 60.905 258.596,60.939 259.067,61.603 258.798 C 61.989 258.641,63.199 258.199,64.292 257.815 C 65.385 257.431,66.616 256.922,67.027 256.683 C 67.437 256.444,68.960 255.729,70.410 255.094 L 73.047 253.939 73.043 252.262 C 73.041 251.340,72.875 247.773,72.673 244.336 C 72.472 240.898,72.257 236.175,72.196 233.840 C 72.120 230.928,71.935 229.536,71.605 229.410 C 70.003 228.795,61.264 234.477,57.259 238.739 C 53.234 243.020,52.503 242.162,54.556 235.569 C 55.925 231.173,60.071 227.199,70.188 220.584 C 71.438 219.767,73.164 218.601,74.023 217.994 C 75.282 217.104,90.471 209.291,97.120 206.113 C 100.640 204.431,107.370 201.441,109.180 200.756 C 110.254 200.349,111.829 199.661,112.680 199.227 C 113.531 198.793,114.432 198.438,114.682 198.438 C 114.933 198.438,116.082 198.023,117.237 197.516 C 121.083 195.828,133.698 191.713,138.477 190.587 C 139.551 190.334,141.660 189.736,143.164 189.257 C 144.668 188.778,147.041 188.109,148.438 187.771 C 158.554 185.315,161.060 184.747,163.477 184.361 C 164.980 184.120,167.793 183.591,169.727 183.185 C 174.758 182.129,181.497 180.938,183.890 180.683 C 185.019 180.562,186.513 180.383,187.210 180.284 C 190.564 179.807,209.077 178.620,220.898 178.122 C 230.296 177.727,255.825 177.971,263.583 178.530 M175.384 193.288 C 165.659 196.006,162.958 201.584,162.615 219.665 C 162.387 231.673,162.136 230.932,166.211 230.272 C 171.223 229.459,181.262 228.451,189.063 227.978 L 196.289 227.539 196.262 226.172 C 195.767 201.497,192.134 193.432,181.220 192.775 C 178.745 192.626,177.299 192.753,175.384 193.288 M275.072 193.066 C 275.409 193.335,276.076 195.049,276.555 196.875 C 277.033 198.701,278.003 201.865,278.710 203.906 C 287.615 229.613,287.345 227.703,282.165 228.344 C 277.770 228.888,278.135 229.345,275.576 220.117 C 275.218 218.828,274.591 217.036,274.182 216.135 C 273.772 215.233,273.438 214.353,273.438 214.179 C 273.438 213.395,269.028 200.460,267.734 197.447 C 265.978 193.359,266.038 193.265,270.616 192.942 C 272.490 192.810,274.122 192.674,274.242 192.640 C 274.362 192.606,274.736 192.798,275.072 193.066 M140.039 200.937 C 134.597 202.658,130.639 207.287,128.912 213.951 C 127.863 217.997,127.858 237.036,128.906 236.759 C 130.443 236.353,136.443 235.069,139.063 234.584 C 152.124 232.169,155.327 231.500,155.689 231.111 C 156.921 229.785,155.281 214.363,153.247 208.153 C 151.255 202.070,145.830 199.106,140.039 200.937 M108.676 210.825 C 107.035 211.139,102.636 216.009,101.669 218.583 C 100.425 221.893,99.627 228.758,99.513 237.144 L 99.414 244.405 100.977 244.057 C 101.836 243.866,104.473 243.121,106.836 242.403 C 109.199 241.684,112.012 240.892,113.086 240.641 C 114.160 240.391,116.445 239.751,118.164 239.218 L 121.289 238.250 121.189 233.090 C 120.875 216.826,116.644 209.298,108.676 210.825 M85.330 221.452 C 79.732 224.663,78.125 229.743,78.125 244.228 L 78.125 251.563 79.004 251.545 C 80.399 251.517,94.345 246.261,94.250 245.799 C 94.203 245.570,94.056 242.950,93.923 239.976 C 93.181 223.304,90.853 218.285,85.330 221.452 M257.307 242.513 C 262.292 242.965,266.775 243.424,267.268 243.532 C 267.761 243.639,271.064 243.913,274.609 244.141 C 280.544 244.521,291.778 246.072,298.563 247.448 C 300.105 247.761,301.817 248.094,302.366 248.188 C 308.913 249.307,313.955 252.292,311.128 253.376 C 310.027 253.799,297.118 252.745,286.531 251.368 C 280.734 250.615,274.054 249.905,271.687 249.790 C 269.320 249.676,264.834 249.412,261.719 249.203 C 243.558 247.986,196.350 247.987,179.492 249.204 C 176.699 249.405,172.656 249.665,170.508 249.781 C 168.359 249.897,165.898 250.080,165.039 250.187 C 164.180 250.294,161.235 250.648,158.496 250.972 C 155.757 251.297,151.362 251.823,148.730 252.141 C 146.099 252.459,142.715 252.809,141.212 252.918 C 139.709 253.027,134.963 253.755,130.665 254.535 C 126.368 255.315,122.500 256.009,122.070 256.077 C 104.842 258.797,78.719 266.511,61.719 273.899 C 60.752 274.319,58.576 275.366,56.883 276.226 C 53.529 277.928,52.642 277.846,53.640 275.924 C 55.191 272.937,65.065 267.806,80.469 261.984 C 85.722 259.998,99.844 255.784,106.641 254.173 C 108.037 253.842,110.938 253.134,113.086 252.600 C 118.186 251.332,127.258 249.374,130.469 248.849 C 131.865 248.620,134.941 248.091,137.305 247.673 C 144.671 246.371,157.084 244.575,160.352 244.339 C 163.330 244.125,167.079 243.757,180.273 242.387 C 183.496 242.052,186.924 241.717,187.891 241.643 C 195.264 241.075,248.877 241.747,257.307 242.513 M205.410 265.580 C 206.302 266.146,205.741 267.287,203.904 268.637 C 196.127 274.357,193.842 279.796,193.523 293.343 C 193.332 301.464,193.372 301.354,190.681 300.984 C 188.029 300.620,188.013 300.582,187.766 294.336 C 187.648 291.328,187.464 288.428,187.359 287.891 C 186.847 285.290,186.623 284.388,185.918 282.089 C 184.117 276.215,180.250 271.202,175.955 269.174 C 174.122 268.310,173.150 267.309,173.669 266.821 C 174.000 266.510,189.752 265.696,199.414 265.491 C 201.777 265.441,203.975 265.366,204.297 265.323 C 204.619 265.281,205.120 265.397,205.410 265.580 M242.676 265.488 C 244.164 265.901,243.411 267.469,239.919 271.230 C 233.987 277.617,232.813 281.200,232.813 292.904 C 232.813 300.819,232.781 300.907,230.009 300.707 L 228.320 300.586 228.092 293.945 C 227.647 281.004,223.668 272.552,216.343 268.987 C 213.427 267.568,212.632 266.721,213.449 265.903 C 214.033 265.319,240.705 264.940,242.676 265.488 M259.570 266.203 C 262.148 266.333,266.895 266.696,270.117 267.011 C 280.766 268.052,280.630 267.984,277.998 270.976 C 272.084 277.702,269.498 286.627,270.489 296.898 C 270.828 300.419,270.633 300.781,268.396 300.781 C 265.795 300.781,265.602 300.453,265.879 296.513 C 266.735 284.379,261.621 272.475,254.142 269.192 C 252.218 268.348,251.070 267.278,251.442 266.676 C 251.764 266.155,253.253 265.682,254.102 265.831 C 254.531 265.906,256.992 266.074,259.570 266.203 M163.203 268.441 C 163.267 268.773,162.617 269.601,161.758 270.281 C 155.276 275.415,152.332 282.915,152.087 294.922 C 151.914 303.404,152.182 302.760,148.943 302.472 C 145.558 302.172,145.404 302.033,145.617 299.474 C 146.247 291.872,142.379 279.144,138.064 274.619 C 135.010 271.418,135.196 271.107,140.625 270.339 C 142.236 270.111,145.225 269.666,147.266 269.349 C 149.307 269.032,152.691 268.665,154.787 268.534 C 156.883 268.402,159.432 268.155,160.451 267.984 C 162.703 267.608,163.053 267.666,163.203 268.441 M127.666 273.572 C 127.736 273.932,127.240 274.926,126.563 275.781 C 124.490 278.398,121.687 284.571,121.242 287.500 C 121.127 288.252,120.885 289.570,120.704 290.430 C 120.075 293.414,119.902 297.087,120.254 300.000 C 120.688 303.591,120.561 303.753,117.100 304.010 C 113.749 304.259,113.828 304.391,113.510 298.024 C 112.930 286.379,112.198 284.338,107.086 280.106 C 105.524 278.813,105.111 278.002,105.798 277.577 C 106.500 277.143,115.027 274.970,117.505 274.593 C 118.942 274.375,121.611 273.864,123.438 273.458 C 127.152 272.631,127.486 272.640,127.666 273.572 M309.272 275.098 C 309.482 275.366,309.972 276.816,310.360 278.320 C 310.747 279.824,311.232 281.388,311.436 281.795 C 311.640 282.203,312.386 284.136,313.094 286.092 C 314.597 290.248,316.471 295.018,317.521 297.366 C 320.494 304.010,320.698 303.516,314.990 303.516 C 310.430 303.516,308.984 303.179,308.984 302.119 C 308.984 301.795,308.647 300.439,308.236 299.105 C 307.824 297.771,306.847 294.570,306.065 291.992 C 304.427 286.591,301.857 279.474,300.661 277.026 C 299.955 275.583,299.919 275.290,300.407 274.982 C 301.300 274.417,308.815 274.515,309.272 275.098 M99.711 280.999 C 96.491 284.666,94.672 291.154,94.272 300.399 L 94.019 306.247 92.615 306.637 C 89.468 307.511,88.654 306.838,88.686 303.386 C 88.725 299.270,87.430 294.055,85.333 289.880 C 84.806 288.831,84.375 287.811,84.375 287.614 C 84.375 287.417,83.834 286.856,83.173 286.368 C 81.024 284.779,83.968 283.172,94.727 280.063 C 100.738 278.326,101.871 278.539,99.711 280.999 M77.242 287.390 C 77.320 287.625,76.872 288.405,76.246 289.123 C 74.063 291.630,73.284 294.351,72.241 303.125 C 71.750 307.247,71.474 307.813,69.949 307.813 C 67.815 307.813,67.643 307.343,67.507 301.141 C 67.386 295.574,67.358 295.413,66.274 293.993 C 65.117 292.476,65.125 291.537,66.300 291.175 C 67.085 290.932,71.489 289.033,74.414 287.675 C 76.451 286.730,77.003 286.675,77.242 287.390 M56.778 301.887 C 56.520 308.228,56.674 307.878,54.204 307.735 L 52.148 307.617 52.277 303.516 C 52.421 298.937,52.809 297.952,54.796 297.126 C 56.921 296.243,57.001 296.435,56.778 301.887 " stroke="none" fill="#060706" fill-rule="evenodd"></path><path id="path1" d="M17.959 0.930 C 9.002 4.036,3.761 9.749,1.072 19.336 L 0.195 22.461 0.075 197.461 C -0.015 329.363,0.068 373.320,0.412 375.948 C 2.006 388.113,8.480 395.663,20.117 398.928 L 23.242 399.805 197.852 399.925 C 329.456 400.015,373.320 399.932,375.948 399.588 C 388.113 397.994,395.663 391.520,398.928 379.883 L 399.805 376.758 399.925 201.758 C 400.015 69.856,399.932 25.899,399.588 23.271 C 398.069 11.678,391.883 3.998,381.502 0.820 L 378.824 0.000 199.666 0.023 L 20.508 0.046 17.959 0.930 M231.446 61.621 C 231.767 63.254,234.703 72.403,236.185 76.387 C 236.908 78.331,237.500 80.135,237.500 80.396 C 237.500 80.657,237.675 81.175,237.888 81.548 C 238.101 81.921,238.900 84.072,239.662 86.328 C 240.424 88.584,241.734 92.457,242.573 94.934 C 243.412 97.411,244.370 99.960,244.703 100.598 C 245.036 101.236,245.309 102.047,245.310 102.400 C 245.313 103.307,245.779 103.387,250.384 103.278 C 255.926 103.146,255.469 102.088,255.469 115.034 C 255.469 121.101,255.645 126.997,255.862 128.136 C 256.267 130.272,255.729 131.641,254.484 131.641 C 252.379 131.641,251.498 134.099,252.734 136.523 C 253.164 137.366,253.516 138.187,253.516 138.346 C 253.516 138.506,254.034 139.743,254.667 141.096 C 255.301 142.448,256.960 146.963,258.354 151.129 C 259.749 155.294,261.085 158.898,261.323 159.136 C 261.616 159.430,266.138 159.633,275.312 159.766 C 282.767 159.873,289.087 160.103,289.355 160.277 C 290.147 160.789,290.057 189.679,289.263 189.983 C 288.943 190.106,287.796 190.324,286.715 190.467 C 284.334 190.783,284.357 190.750,284.790 193.170 C 284.981 194.241,285.238 195.688,285.360 196.387 L 285.582 197.656 302.352 197.656 L 319.121 197.656 319.855 195.996 C 320.258 195.083,320.693 194.038,320.820 193.674 C 321.148 192.740,322.865 192.524,328.906 192.657 L 334.180 192.773 334.282 206.170 L 334.385 219.567 333.060 220.120 C 331.307 220.853,331.101 221.568,332.014 223.759 C 332.432 224.764,332.976 226.372,333.223 227.333 C 333.469 228.295,334.160 230.140,334.757 231.435 C 335.777 233.645,337.307 237.520,340.236 245.313 C 340.923 247.139,341.639 249.028,341.828 249.512 L 342.171 250.391 352.097 250.391 L 362.024 250.391 361.835 262.012 C 361.657 272.981,361.601 273.697,360.836 274.780 C 359.619 276.502,362.100 282.666,370.366 298.460 C 371.765 301.133,373.403 304.320,374.006 305.541 L 375.102 307.762 384.329 307.885 C 394.380 308.019,394.163 307.972,396.280 310.465 C 398.369 312.924,397.527 315.890,393.992 318.529 L 392.911 319.336 206.646 319.336 L 20.380 319.336 18.705 318.159 C 15.041 315.584,14.822 312.679,18.089 310.001 C 20.665 307.891,21.136 307.813,31.218 307.813 L 40.509 307.813 40.760 304.590 C 41.359 296.896,41.077 286.895,40.239 286.137 C 36.149 282.435,36.195 279.911,40.430 275.826 L 43.750 272.623 43.750 257.267 L 43.750 241.911 42.787 240.872 C 41.916 239.932,40.625 236.588,40.625 235.272 C 40.625 234.527,43.552 231.449,46.191 229.417 L 48.438 227.689 48.438 215.589 L 48.438 203.490 47.461 201.563 C 46.205 199.083,46.164 199.284,48.420 196.856 L 50.355 194.773 50.211 172.484 C 50.132 160.225,49.955 149.751,49.818 149.208 C 49.628 148.455,49.875 147.821,50.858 146.538 C 51.568 145.612,52.500 144.385,52.930 143.810 C 61.999 131.677,70.922 122.731,84.077 112.582 C 84.993 111.876,86.505 110.690,87.438 109.947 C 92.444 105.959,100.521 100.941,113.672 93.648 C 115.680 92.534,122.682 89.009,125.586 87.651 C 128.455 86.308,139.856 81.715,144.141 80.175 C 150.693 77.820,160.271 74.609,160.742 74.609 C 160.994 74.609,163.118 74.020,165.463 73.300 C 172.964 70.997,188.715 67.182,194.727 66.211 C 196.445 65.934,200.137 65.247,202.930 64.685 C 205.723 64.123,209.502 63.487,211.328 63.273 C 213.154 63.059,217.725 62.377,221.484 61.757 C 230.598 60.256,231.176 60.248,231.446 61.621 M220.313 73.089 C 219.131 73.277,215.439 73.870,212.109 74.407 C 208.779 74.944,205.176 75.479,204.102 75.597 C 203.027 75.714,199.294 76.419,195.805 77.163 C 192.315 77.907,189.064 78.517,188.578 78.518 C 188.093 78.520,184.531 79.288,180.664 80.226 C 161.820 84.797,154.846 86.961,138.672 93.255 C 132.834 95.527,111.825 105.972,106.563 109.219 C 87.156 121.193,75.621 130.527,67.507 140.820 C 66.322 142.324,64.448 144.609,63.344 145.898 L 61.335 148.242 61.293 160.156 C 61.269 166.709,61.127 175.674,60.976 180.078 C 60.825 184.482,60.748 188.192,60.806 188.321 C 60.864 188.450,63.862 185.680,67.468 182.166 C 76.435 173.426,76.081 173.726,83.398 168.701 C 89.109 164.780,92.349 162.863,99.723 159.044 C 103.115 157.287,106.552 155.432,107.361 154.922 C 109.504 153.569,113.804 151.454,117.383 149.992 C 119.102 149.291,120.675 148.566,120.879 148.382 C 121.083 148.198,121.475 148.047,121.749 148.047 C 122.024 148.047,123.563 147.432,125.169 146.680 C 126.775 145.928,128.283 145.313,128.520 145.313 C 128.757 145.313,130.391 144.722,132.151 144.001 C 133.911 143.279,137.900 141.850,141.016 140.825 C 144.131 139.801,147.822 138.555,149.219 138.056 C 155.873 135.683,168.114 132.247,175.391 130.710 C 177.861 130.188,181.553 129.400,183.594 128.958 C 191.866 127.167,202.373 125.316,206.055 125.001 C 210.657 124.606,212.300 124.296,218.555 122.634 C 221.133 121.950,225.088 121.136,227.344 120.826 C 229.600 120.516,232.047 120.141,232.783 119.994 C 237.627 119.025,229.822 117.511,218.945 117.311 C 214.648 117.231,210.693 117.054,210.156 116.916 C 209.619 116.778,209.063 116.651,208.919 116.633 C 207.984 116.519,208.418 116.086,209.656 115.899 C 210.468 115.776,212.363 115.392,213.867 115.044 C 215.371 114.696,217.832 114.256,219.336 114.066 C 220.840 113.876,223.652 113.440,225.586 113.098 C 227.520 112.755,231.475 112.289,234.375 112.062 C 241.352 111.515,242.371 110.928,238.541 109.661 C 237.136 109.197,236.832 108.887,236.314 107.394 C 235.984 106.442,235.508 105.225,235.256 104.688 C 234.407 102.879,230.925 93.958,230.530 92.578 C 230.314 91.826,229.075 88.456,227.776 85.088 C 226.477 81.720,225.119 77.765,224.759 76.299 C 224.399 74.832,223.933 73.413,223.723 73.145 C 223.302 72.605,223.350 72.606,220.313 73.089 M217.969 99.006 L 217.969 107.386 216.699 107.579 C 216.001 107.685,213.716 107.872,211.621 107.995 L 207.813 108.219 207.813 100.811 C 207.813 91.716,207.138 92.578,215.430 91.072 C 216.504 90.877,217.515 90.697,217.676 90.671 C 217.837 90.646,217.969 94.396,217.969 99.006 M185.547 104.448 L 185.547 112.802 183.691 113.078 C 182.671 113.230,181.644 113.512,181.410 113.704 C 181.176 113.897,179.682 114.482,178.090 115.004 C 176.498 115.527,174.888 116.075,174.512 116.222 C 173.450 116.638,173.464 100.451,174.526 99.490 C 175.828 98.311,181.455 96.524,185.059 96.145 C 185.436 96.105,185.547 97.998,185.547 104.448 M153.035 114.349 L 152.930 122.839 149.805 123.494 C 148.086 123.853,145.829 124.516,144.789 124.966 C 142.158 126.104,142.187 126.182,142.193 118.043 C 142.200 109.570,141.995 110.143,145.508 108.777 C 147.012 108.192,149.121 107.303,150.195 106.801 C 153.336 105.333,153.153 104.847,153.035 114.349 M122.176 126.227 C 122.089 132.394,121.968 133.761,121.484 134.025 C 120.268 134.691,112.010 137.924,111.880 137.786 C 111.834 137.736,111.736 134.600,111.663 130.818 C 111.518 123.286,111.569 123.082,113.836 122.079 C 114.498 121.787,116.445 120.920,118.164 120.153 C 122.645 118.155,122.298 117.630,122.176 126.227 M96.410 136.816 C 97.325 146.104,96.986 147.169,92.653 148.608 C 91.633 148.947,90.127 149.680,89.307 150.238 C 87.179 151.684,87.077 151.371,87.198 143.747 L 87.305 136.966 88.737 136.159 C 89.525 135.715,91.371 134.612,92.839 133.707 C 94.307 132.803,95.605 132.055,95.723 132.047 C 95.842 132.038,96.151 134.185,96.410 136.816 M239.276 138.897 C 235.663 140.159,235.731 140.014,236.906 143.993 C 238.753 150.249,239.735 153.669,240.483 156.445 L 241.219 159.180 245.256 159.180 C 247.476 159.180,249.371 159.053,249.467 158.898 C 249.653 158.597,248.604 154.977,245.869 146.484 C 244.935 143.584,243.946 140.464,243.670 139.551 C 243.088 137.621,242.978 137.605,239.276 138.897 M210.938 143.656 C 204.975 147.600,203.125 151.348,203.125 159.482 C 203.125 163.530,203.708 163.159,197.070 163.333 L 191.602 163.477 191.349 159.133 C 190.840 150.360,185.560 145.578,179.573 148.469 C 174.356 150.989,171.998 155.214,171.536 162.872 L 171.289 166.956 169.531 167.448 C 168.564 167.719,165.975 168.448,163.776 169.068 C 158.960 170.426,159.375 170.805,159.375 165.052 C 159.375 157.413,154.889 153.022,149.994 155.870 C 149.245 156.306,148.366 156.755,148.039 156.869 C 145.847 157.632,142.580 165.537,142.572 170.098 C 142.565 174.476,142.716 174.275,138.477 175.548 C 136.543 176.129,134.137 176.858,133.130 177.169 C 132.123 177.480,131.177 177.734,131.028 177.734 C 130.880 177.734,130.877 176.690,131.021 175.413 C 131.281 173.116,130.731 170.609,129.281 167.485 C 128.741 166.320,125.402 164.416,124.294 164.641 C 120.107 165.488,118.165 169.286,117.697 177.539 C 117.416 182.497,117.006 182.915,109.855 185.533 C 108.508 186.026,107.311 186.583,107.195 186.769 C 106.182 188.408,105.469 187.012,105.469 183.391 C 105.469 179.195,104.611 177.149,102.365 175.988 C 98.321 173.896,95.932 177.561,95.911 185.887 L 95.898 191.111 94.727 191.997 C 93.429 192.978,85.087 197.266,84.475 197.266 C 84.259 197.266,84.007 195.572,83.904 193.423 C 83.658 188.326,82.868 186.576,80.732 186.400 C 77.318 186.119,76.008 189.266,76.234 197.204 C 76.307 199.780,76.279 201.957,76.172 202.042 C 75.742 202.382,72.029 204.908,71.421 205.273 C 71.065 205.488,69.686 206.424,68.357 207.352 C 67.029 208.281,65.894 208.984,65.836 208.915 C 65.778 208.846,65.566 206.284,65.365 203.223 C 64.926 196.521,64.743 196.232,62.341 198.446 L 60.547 200.100 60.547 207.250 L 60.547 214.400 59.375 215.234 C 58.322 215.984,58.203 216.281,58.203 218.168 C 58.203 220.687,58.561 221.005,60.026 219.788 C 60.635 219.281,61.769 218.445,62.546 217.930 C 63.324 217.414,65.081 216.219,66.452 215.274 C 72.319 211.229,88.069 202.756,96.680 199.012 C 99.473 197.798,101.934 196.675,102.148 196.516 C 102.363 196.358,103.418 195.911,104.492 195.522 C 105.566 195.134,107.324 194.424,108.398 193.945 C 111.454 192.580,117.576 190.264,119.727 189.657 C 120.801 189.354,124.053 188.201,126.953 187.095 C 129.854 185.988,133.281 184.776,134.570 184.402 C 141.764 182.311,154.245 179.106,156.445 178.784 C 157.090 178.690,160.957 177.983,165.039 177.214 C 171.826 175.935,183.846 173.772,188.361 173.016 C 189.372 172.847,191.563 172.591,193.230 172.446 C 194.897 172.301,196.619 172.047,197.056 171.882 C 197.876 171.572,200.512 171.257,205.273 170.901 C 206.777 170.789,210.117 170.514,212.695 170.291 C 215.786 170.023,227.591 169.978,247.340 170.159 C 279.909 170.456,279.297 170.491,279.297 168.358 C 279.297 166.896,266.508 165.948,238.105 165.304 L 226.405 165.039 225.857 163.086 C 223.368 154.213,218.992 144.838,216.803 143.685 C 215.123 142.801,212.251 142.787,210.938 143.656 M76.172 153.669 L 76.172 160.464 73.458 162.318 C 71.966 163.338,70.653 164.411,70.541 164.703 C 69.821 166.578,69.531 164.665,69.531 158.046 L 69.531 150.858 70.801 150.039 C 71.499 149.588,72.853 148.692,73.809 148.047 C 74.765 147.402,75.688 146.875,75.860 146.875 C 76.031 146.875,76.172 149.932,76.172 153.669 M220.703 178.520 C 216.299 178.705,209.795 179.044,206.250 179.274 C 202.705 179.503,197.432 179.792,194.531 179.914 C 191.631 180.037,188.291 180.306,187.109 180.511 C 185.928 180.717,184.170 180.981,183.203 181.098 C 182.236 181.216,177.930 182.017,173.633 182.879 C 169.336 183.741,164.766 184.595,163.477 184.777 C 160.539 185.192,150.458 187.593,144.531 189.289 C 139.636 190.690,134.060 192.250,130.078 193.333 C 126.763 194.234,115.042 198.527,112.790 199.664 C 112.412 199.855,110.799 200.529,109.204 201.162 C 107.610 201.795,105.546 202.659,104.618 203.081 C 93.241 208.250,92.006 208.857,77.930 216.191 C 75.996 217.199,73.505 218.709,72.394 219.548 C 71.283 220.386,69.706 221.448,68.889 221.906 C 64.074 224.611,56.148 231.592,55.511 233.690 C 55.299 234.389,54.859 235.664,54.533 236.523 C 53.875 238.258,53.709 241.016,54.262 241.016 C 54.457 241.016,56.259 239.390,58.266 237.402 C 62.763 232.949,71.022 227.923,72.090 228.991 C 72.370 229.271,73.019 241.775,73.157 249.541 L 73.242 254.356 71.094 255.242 C 69.912 255.730,68.154 256.492,67.188 256.936 C 65.039 257.922,61.247 259.375,60.821 259.375 C 60.649 259.375,60.536 255.321,60.569 250.366 C 60.637 240.014,60.712 240.304,58.677 243.037 C 56.006 246.624,56.066 246.349,56.205 254.334 L 56.332 261.598 55.119 262.979 C 52.199 266.305,53.604 266.293,60.632 262.931 C 64.899 260.891,69.636 258.983,77.734 256.044 C 79.131 255.538,82.910 254.305,86.133 253.306 C 89.355 252.307,93.574 250.994,95.508 250.388 C 97.441 249.782,99.463 249.202,100.000 249.100 C 100.537 248.998,102.822 248.389,105.078 247.748 C 113.078 245.472,131.867 241.451,146.680 238.845 C 146.895 238.807,149.268 238.476,151.953 238.109 C 154.639 237.742,159.209 237.112,162.109 236.710 C 178.606 234.420,213.136 233.801,250.391 235.128 C 264.846 235.642,272.656 236.280,290.625 238.414 C 293.096 238.708,295.469 238.973,295.898 239.004 C 296.328 239.034,298.843 239.353,301.486 239.712 C 306.434 240.384,308.617 239.899,307.654 238.341 C 307.303 237.773,301.616 236.057,297.852 235.382 C 296.133 235.075,292.388 234.373,289.530 233.824 C 286.672 233.274,282.486 232.649,280.228 232.435 C 277.969 232.221,275.918 231.921,275.670 231.767 C 275.421 231.613,274.724 231.525,274.120 231.571 C 273.516 231.617,272.691 231.478,272.287 231.261 C 271.882 231.045,269.910 230.781,267.905 230.674 C 265.899 230.568,260.830 230.121,256.641 229.683 C 242.472 228.198,239.681 228.065,221.289 227.997 L 202.930 227.930 202.817 218.945 C 202.688 208.722,202.999 206.145,204.840 202.161 C 209.543 191.982,218.373 187.998,226.758 192.273 C 234.553 196.247,238.486 204.555,239.015 218.164 L 239.258 224.414 241.191 224.414 L 243.124 224.414 243.144 214.648 C 243.171 201.356,243.449 200.474,249.666 193.938 C 252.028 191.454,253.892 189.214,253.807 188.960 C 253.501 188.042,250.613 187.907,226.758 187.691 C 199.077 187.440,196.774 187.340,196.955 186.390 C 197.100 185.633,199.390 184.987,203.125 184.650 C 204.521 184.524,207.422 184.156,209.570 183.832 C 217.232 182.675,238.541 181.723,261.128 181.527 C 269.559 181.453,270.510 181.379,270.624 180.788 C 270.693 180.427,270.413 179.951,270.002 179.730 C 267.968 178.642,236.305 177.864,220.703 178.520 M185.903 193.206 C 193.245 196.274,195.143 201.345,196.480 221.460 C 196.957 228.638,197.587 227.943,190.300 228.281 C 184.845 228.534,163.863 230.695,163.263 231.066 C 161.854 231.937,161.689 212.359,163.055 206.445 C 165.507 195.839,176.692 189.358,185.903 193.206 M267.231 193.715 C 266.790 193.994,267.021 194.852,268.461 198.299 C 269.435 200.631,271.158 205.439,272.288 208.984 C 273.419 212.529,274.678 216.217,275.087 217.180 C 275.496 218.142,276.261 220.603,276.787 222.648 C 278.071 227.645,278.475 228.578,279.251 228.350 C 279.598 228.248,281.161 228.044,282.724 227.898 C 286.170 227.575,286.079 227.708,285.130 224.383 C 284.706 222.896,284.068 220.625,283.713 219.336 C 283.357 218.047,282.950 216.816,282.808 216.602 C 282.666 216.387,282.244 215.156,281.870 213.867 C 281.496 212.578,281.036 211.172,280.847 210.742 C 279.894 208.573,279.114 206.403,277.689 201.953 C 275.477 195.043,275.391 194.746,275.391 194.015 C 275.391 193.282,268.325 193.022,267.231 193.715 M147.955 200.929 C 152.971 203.523,155.666 211.064,156.206 224.023 C 156.548 232.228,156.666 231.838,153.711 232.284 C 151.441 232.627,141.964 234.418,139.648 234.942 C 138.359 235.234,135.986 235.695,134.375 235.967 C 132.764 236.240,130.767 236.695,129.939 236.978 C 129.110 237.262,128.275 237.398,128.083 237.279 C 127.292 236.790,127.676 216.961,128.543 213.564 C 131.036 203.802,140.986 197.325,147.955 200.929 M114.871 211.542 C 119.157 214.513,121.330 221.483,121.576 233.050 L 121.693 238.562 117.585 239.773 C 115.325 240.439,112.334 241.245,110.938 241.563 C 109.541 241.881,107.607 242.428,106.641 242.778 C 104.873 243.418,99.086 244.959,99.021 244.808 C 98.718 244.095,99.672 225.558,100.138 223.108 C 102.001 213.307,109.229 207.633,114.871 211.542 M90.218 220.945 C 91.988 222.434,92.529 223.706,93.192 227.930 C 94.045 233.365,94.841 245.842,94.366 246.328 C 93.554 247.158,78.976 252.454,78.261 252.180 C 77.614 251.931,77.518 238.850,78.124 233.594 C 79.168 224.537,85.998 217.394,90.218 220.945 M187.695 242.035 C 185.388 242.191,175.448 243.216,170.639 243.794 C 168.778 244.017,165.877 244.263,164.194 244.340 C 160.825 244.494,154.198 245.327,147.266 246.468 C 144.795 246.875,141.807 247.338,140.625 247.497 C 137.930 247.860,137.858 247.873,134.657 248.606 C 133.201 248.939,131.882 249.179,131.727 249.138 C 131.033 248.959,121.323 250.996,112.500 253.173 C 110.674 253.624,107.773 254.335,106.055 254.754 C 104.336 255.173,100.820 256.121,98.242 256.861 C 95.664 257.601,93.379 258.206,93.164 258.205 C 92.588 258.202,80.745 262.237,77.344 263.595 C 75.732 264.238,73.008 265.320,71.289 265.999 C 64.170 268.813,55.069 274.048,54.038 275.922 C 53.224 277.402,53.907 277.377,56.959 275.812 C 67.486 270.415,89.642 262.627,100.977 260.339 C 102.266 260.079,105.693 259.300,108.594 258.607 C 111.494 257.915,114.658 257.211,115.625 257.043 C 116.592 256.875,120.459 256.112,124.219 255.348 C 132.714 253.621,140.301 252.383,143.917 252.133 C 145.437 252.028,151.162 251.408,156.641 250.755 C 181.672 247.771,227.100 246.957,263.672 248.837 C 271.344 249.232,277.432 249.814,289.844 251.339 C 301.066 252.719,310.937 253.266,311.197 252.523 C 311.629 251.287,307.372 249.437,302.148 248.590 C 301.504 248.486,300.713 248.294,300.391 248.164 C 300.068 248.033,299.365 247.863,298.828 247.784 C 298.291 247.706,294.688 247.122,290.820 246.488 C 283.132 245.227,274.882 244.292,270.325 244.164 C 268.721 244.118,267.295 244.011,267.156 243.926 C 265.012 242.601,201.617 241.092,187.695 242.035 M181.836 266.480 C 172.808 266.924,172.342 267.102,175.988 268.715 C 180.639 270.772,185.725 278.128,186.949 284.569 C 187.031 284.999,187.267 286.230,187.473 287.305 C 188.169 290.938,188.410 293.543,188.350 296.791 C 188.283 300.398,188.234 300.334,191.151 300.487 L 193.043 300.586 192.989 295.898 C 192.828 281.970,195.897 273.768,203.125 268.805 C 207.014 266.135,206.736 266.007,197.197 266.075 C 192.615 266.108,185.703 266.290,181.836 266.480 M213.672 266.579 C 213.672 266.888,214.747 267.715,216.061 268.415 C 224.264 272.787,227.991 280.414,228.404 293.672 L 228.615 300.429 230.421 300.312 L 232.227 300.195 232.465 291.797 C 232.798 280.089,233.696 277.413,239.278 271.484 C 241.923 268.675,242.969 267.267,242.969 266.515 C 242.969 266.119,239.947 266.016,228.320 266.016 C 215.825 266.016,213.672 266.098,213.672 266.579 M252.745 266.404 C 251.373 266.728,251.702 267.315,253.950 268.555 C 259.798 271.778,264.654 278.895,265.439 285.388 C 265.540 286.227,265.818 288.229,266.055 289.837 C 266.293 291.445,266.425 294.433,266.349 296.478 L 266.211 300.195 268.126 300.195 L 270.040 300.195 270.154 292.578 C 270.314 281.864,272.298 276.110,277.650 270.831 C 279.325 269.179,279.269 268.483,277.441 268.206 C 271.738 267.340,254.200 266.060,252.745 266.404 M160.554 268.418 C 159.592 268.595,156.516 268.905,153.718 269.107 C 148.210 269.504,138.274 270.928,136.752 271.539 C 135.815 271.914,135.824 271.934,137.962 274.142 C 142.938 279.283,146.081 288.922,146.091 299.074 L 146.094 301.859 148.535 302.048 C 151.951 302.312,151.849 302.532,151.869 294.818 C 151.899 282.966,154.321 276.531,161.017 270.511 C 163.257 268.497,163.135 267.944,160.554 268.418 M121.875 274.076 C 116.254 275.166,108.144 277.089,106.446 277.734 L 105.285 278.176 107.037 279.607 C 110.896 282.758,112.613 285.189,113.026 288.086 C 113.275 289.826,114.015 298.729,114.163 301.758 L 114.258 303.711 116.992 303.580 C 120.382 303.417,120.287 303.535,119.860 300.000 C 118.927 292.290,121.659 281.607,126.026 275.886 C 127.256 274.273,127.726 272.993,127.051 273.088 C 126.890 273.111,124.561 273.556,121.875 274.076 M300.594 275.377 C 300.458 275.598,300.615 276.263,300.944 276.855 C 302.363 279.405,305.443 288.273,308.507 298.633 L 309.663 302.539 314.491 302.808 C 317.146 302.956,319.369 303.027,319.431 302.965 C 319.531 302.865,319.071 301.762,316.805 296.680 C 316.422 295.820,315.829 294.291,315.488 293.282 C 315.146 292.272,314.514 290.690,314.083 289.766 C 313.652 288.842,312.953 286.993,312.529 285.656 C 312.105 284.320,311.541 282.826,311.275 282.336 C 311.008 281.846,310.417 280.039,309.961 278.320 L 309.132 275.195 304.988 275.085 C 302.442 275.017,300.747 275.130,300.594 275.377 M96.680 279.862 C 95.820 280.139,94.063 280.666,92.773 281.033 C 85.651 283.060,81.651 285.107,83.196 285.934 C 85.499 287.166,89.062 297.876,89.062 303.565 C 89.063 306.350,89.599 306.885,91.902 306.401 L 93.555 306.054 93.650 303.515 C 94.102 291.499,96.084 283.854,99.564 280.705 C 101.091 279.323,99.653 278.904,96.680 279.862 M74.023 288.291 C 72.413 289.057,67.519 291.114,66.309 291.535 C 65.337 291.873,65.460 292.713,66.699 294.185 C 67.735 295.416,67.777 295.642,67.884 300.563 C 68.033 307.465,68.042 307.496,69.837 307.347 L 71.289 307.227 71.596 304.883 C 72.943 294.591,73.652 291.832,75.632 289.186 C 77.095 287.231,76.708 287.015,74.023 288.291 M54.596 297.694 C 52.894 298.576,52.783 298.928,52.643 303.906 L 52.539 307.617 53.978 307.737 C 55.548 307.867,56.502 306.864,56.136 305.465 C 56.034 305.077,56.115 303.135,56.314 301.148 C 56.732 296.978,56.577 296.667,54.596 297.694 " stroke="none" fill="#fbfbfb" fill-rule="evenodd"></path><path id="path2" d="M207.976 100.781 C 207.976 104.971,208.033 106.685,208.104 104.590 C 208.174 102.495,208.174 99.067,208.104 96.973 C 208.033 94.878,207.976 96.592,207.976 100.781 M173.992 108.008 C 173.992 112.305,174.049 114.116,174.119 112.032 C 174.189 109.949,174.189 106.434,174.120 104.220 C 174.050 102.006,173.993 103.711,173.992 108.008 M142.345 116.797 C 142.345 120.127,142.405 121.489,142.478 119.824 C 142.551 118.159,142.551 115.435,142.478 113.770 C 142.405 112.104,142.345 113.467,142.345 116.797 M236.426 111.999 C 237.017 112.088,237.983 112.088,238.574 111.999 C 239.165 111.909,238.682 111.836,237.500 111.836 C 236.318 111.836,235.835 111.909,236.426 111.999 M232.422 118.510 C 232.422 118.593,232.940 118.737,233.573 118.830 C 234.206 118.923,234.635 118.855,234.527 118.679 C 234.333 118.366,232.422 118.213,232.422 118.510 M61.113 161.328 C 61.113 168.525,61.165 171.470,61.230 167.871 C 61.294 164.272,61.294 158.384,61.230 154.785 C 61.165 151.187,61.113 154.131,61.113 161.328 M202.877 158.789 C 202.878 160.938,202.944 161.767,203.023 160.631 C 203.102 159.496,203.101 157.738,203.021 156.725 C 202.941 155.712,202.876 156.641,202.877 158.789 M242.681 159.655 C 243.275 159.745,244.154 159.743,244.634 159.650 C 245.115 159.557,244.629 159.484,243.555 159.487 C 242.480 159.490,242.087 159.566,242.681 159.655 M251.660 165.504 C 252.036 165.602,252.651 165.602,253.027 165.504 C 253.403 165.405,253.096 165.325,252.344 165.325 C 251.592 165.325,251.284 165.405,251.660 165.504 M211.621 170.595 C 212.319 170.682,213.462 170.682,214.160 170.595 C 214.858 170.508,214.287 170.438,212.891 170.438 C 211.494 170.438,210.923 170.508,211.621 170.595 M251.296 170.605 C 256.199 170.667,264.109 170.667,268.874 170.605 C 273.640 170.543,269.629 170.492,259.961 170.492 C 250.293 170.492,246.394 170.543,251.296 170.605 M60.672 177.344 C 60.672 178.740,60.743 179.312,60.829 178.613 C 60.916 177.915,60.916 176.772,60.829 176.074 C 60.743 175.376,60.672 175.947,60.672 177.344 M204.395 179.191 C 205.200 179.275,206.519 179.275,207.324 179.191 C 208.130 179.107,207.471 179.038,205.859 179.038 C 204.248 179.038,203.589 179.107,204.395 179.191 M267.285 179.176 C 267.661 179.274,268.276 179.274,268.652 179.176 C 269.028 179.077,268.721 178.997,267.969 178.997 C 267.217 178.997,266.909 179.077,267.285 179.176 M224.512 182.710 C 225.640 182.789,227.485 182.789,228.613 182.710 C 229.741 182.631,228.818 182.566,226.563 182.566 C 224.307 182.566,223.384 182.631,224.512 182.710 M218.066 183.097 C 218.872 183.181,220.190 183.181,220.996 183.097 C 221.802 183.013,221.143 182.944,219.531 182.944 C 217.920 182.944,217.261 183.013,218.066 183.097 M213.775 183.483 C 214.369 183.573,215.248 183.571,215.728 183.478 C 216.208 183.385,215.723 183.312,214.648 183.315 C 213.574 183.318,213.181 183.394,213.775 183.483 M60.638 185.547 C 60.638 186.299,60.718 186.606,60.816 186.230 C 60.914 185.854,60.914 185.239,60.816 184.863 C 60.718 184.487,60.638 184.795,60.638 185.547 M79.985 186.214 C 80.471 186.307,81.174 186.304,81.548 186.206 C 81.921 186.108,81.523 186.032,80.664 186.036 C 79.805 186.040,79.499 186.120,79.985 186.214 M269.238 193.253 C 270.044 193.338,271.362 193.338,272.168 193.253 C 272.974 193.169,272.314 193.100,270.703 193.100 C 269.092 193.100,268.433 193.169,269.238 193.253 M142.681 200.280 C 143.275 200.370,144.154 200.368,144.634 200.275 C 145.115 200.182,144.629 200.109,143.555 200.112 C 142.480 200.115,142.087 200.191,142.681 200.280 M121.247 231.641 C 121.247 234.541,121.308 235.728,121.383 234.277 C 121.459 232.827,121.459 230.454,121.383 229.004 C 121.308 227.554,121.247 228.740,121.247 231.641 M169.629 229.957 C 170.005 230.055,170.620 230.055,170.996 229.957 C 171.372 229.859,171.064 229.778,170.313 229.778 C 169.561 229.778,169.253 229.859,169.629 229.957 M259.668 229.963 C 260.151 230.056,260.942 230.056,261.426 229.963 C 261.909 229.870,261.514 229.794,260.547 229.794 C 259.580 229.794,259.185 229.870,259.668 229.963 M93.893 237.305 C 93.894 239.453,93.959 240.282,94.038 239.147 C 94.118 238.012,94.117 236.254,94.037 235.241 C 93.956 234.228,93.892 235.156,93.893 237.305 M208.496 234.668 C 213.062 234.730,220.532 234.730,225.098 234.668 C 229.663 234.605,225.928 234.554,216.797 234.554 C 207.666 234.554,203.931 234.605,208.496 234.668 M94.258 243.359 C 94.258 244.541,94.331 245.024,94.420 244.434 C 94.510 243.843,94.510 242.876,94.420 242.285 C 94.331 241.694,94.258 242.178,94.258 243.359 M265.332 243.629 C 265.708 243.727,266.323 243.727,266.699 243.629 C 267.075 243.530,266.768 243.450,266.016 243.450 C 265.264 243.450,264.956 243.530,265.332 243.629 M162.402 250.276 C 162.886 250.369,163.677 250.369,164.160 250.276 C 164.644 250.183,164.248 250.106,163.281 250.106 C 162.314 250.106,161.919 250.183,162.402 250.276 M278.423 250.276 C 278.908 250.370,279.612 250.366,279.985 250.268 C 280.358 250.171,279.961 250.094,279.102 250.099 C 278.242 250.103,277.937 250.183,278.423 250.276 M159.082 250.660 C 159.458 250.758,160.073 250.758,160.449 250.660 C 160.825 250.562,160.518 250.481,159.766 250.481 C 159.014 250.481,158.706 250.562,159.082 250.660 M281.548 250.667 C 282.033 250.760,282.737 250.757,283.110 250.659 C 283.483 250.561,283.086 250.485,282.227 250.489 C 281.367 250.493,281.062 250.573,281.548 250.667 M346.973 250.683 C 349.712 250.750,354.194 250.750,356.934 250.683 C 359.673 250.615,357.432 250.560,351.953 250.560 C 346.475 250.560,344.233 250.615,346.973 250.683 M155.766 251.058 C 156.252 251.151,156.955 251.147,157.329 251.050 C 157.702 250.952,157.305 250.875,156.445 250.880 C 155.586 250.884,155.280 250.964,155.766 251.058 M284.473 251.051 C 284.849 251.149,285.464 251.149,285.840 251.051 C 286.216 250.952,285.908 250.872,285.156 250.872 C 284.404 250.872,284.097 250.952,284.473 251.051 M152.641 251.448 C 153.127 251.542,153.830 251.538,154.204 251.440 C 154.577 251.342,154.180 251.266,153.320 251.270 C 152.461 251.275,152.155 251.355,152.641 251.448 M287.207 251.441 C 287.583 251.539,288.198 251.539,288.574 251.441 C 288.950 251.343,288.643 251.263,287.891 251.263 C 287.139 251.263,286.831 251.343,287.207 251.441 M149.516 251.839 C 150.002 251.932,150.705 251.929,151.079 251.831 C 151.452 251.733,151.055 251.657,150.195 251.661 C 149.336 251.665,149.030 251.745,149.516 251.839 M175.694 266.693 C 176.613 266.775,178.019 266.774,178.819 266.690 C 179.619 266.606,178.867 266.539,177.148 266.540 C 175.430 266.542,174.775 266.610,175.694 266.693 M262.019 266.689 C 262.721 266.776,263.775 266.774,264.362 266.685 C 264.949 266.596,264.375 266.525,263.086 266.527 C 261.797 266.529,261.317 266.602,262.019 266.689 M145.403 294.141 C 145.403 294.893,145.484 295.200,145.582 294.824 C 145.680 294.448,145.680 293.833,145.582 293.457 C 145.484 293.081,145.403 293.389,145.403 294.141 M266.895 300.660 C 267.271 300.758,267.886 300.758,268.262 300.660 C 268.638 300.562,268.330 300.481,267.578 300.481 C 266.826 300.481,266.519 300.562,266.895 300.660 M147.168 302.229 C 147.651 302.322,148.442 302.322,148.926 302.229 C 149.409 302.136,149.014 302.060,148.047 302.060 C 147.080 302.060,146.685 302.136,147.168 302.229 " stroke="none" fill="#9e9f9e" fill-rule="evenodd"></path><path id="path3" d="M211.816 63.551 C 212.192 63.649,212.808 63.649,213.184 63.551 C 213.560 63.452,213.252 63.372,212.500 63.372 C 211.748 63.372,211.440 63.452,211.816 63.551 M220.020 72.926 C 220.396 73.024,221.011 73.024,221.387 72.926 C 221.763 72.827,221.455 72.747,220.703 72.747 C 219.951 72.747,219.644 72.827,220.020 72.926 M217.667 98.893 C 217.601 104.918,217.454 107.016,217.090 107.163 C 216.707 107.317,216.710 107.367,217.102 107.391 C 217.929 107.442,217.991 106.744,217.871 98.622 L 217.756 90.820 217.667 98.893 M185.245 104.367 C 185.157 112.402,185.152 112.447,184.277 112.615 L 183.398 112.784 184.290 112.837 C 185.554 112.913,185.576 112.742,185.449 104.091 L 185.334 96.289 185.245 104.367 M247.965 103.805 C 249.316 103.882,251.425 103.881,252.652 103.804 C 253.879 103.727,252.773 103.664,250.195 103.665 C 247.617 103.666,246.613 103.729,247.965 103.805 M213.965 107.698 C 214.448 107.791,215.239 107.791,215.723 107.698 C 216.206 107.604,215.811 107.528,214.844 107.528 C 213.877 107.528,213.481 107.604,213.965 107.698 M213.965 116.695 C 215.308 116.772,217.505 116.772,218.848 116.695 C 220.190 116.619,219.092 116.557,216.406 116.557 C 213.721 116.557,212.622 116.619,213.965 116.695 M222.566 117.080 C 223.268 117.167,224.322 117.165,224.909 117.076 C 225.496 116.987,224.922 116.916,223.633 116.918 C 222.344 116.920,221.863 116.993,222.566 117.080 M206.543 125.276 C 207.026 125.369,207.817 125.369,208.301 125.276 C 208.784 125.183,208.389 125.106,207.422 125.106 C 206.455 125.106,206.060 125.183,206.543 125.276 M76.932 130.371 L 75.586 131.836 77.051 130.490 C 78.414 129.237,78.695 128.906,78.397 128.906 C 78.332 128.906,77.672 129.565,76.932 130.371 M73.608 133.301 L 72.461 134.570 73.730 133.423 C 74.429 132.792,75.000 132.221,75.000 132.153 C 75.000 131.852,74.678 132.117,73.608 133.301 M95.820 134.375 C 95.820 135.557,95.893 136.040,95.983 135.449 C 96.072 134.858,96.072 133.892,95.983 133.301 C 95.893 132.710,95.820 133.193,95.820 134.375 M70.483 136.816 L 69.336 138.086 70.605 136.939 C 71.304 136.308,71.875 135.736,71.875 135.669 C 71.875 135.367,71.553 135.633,70.483 136.816 M96.192 138.086 C 96.197 138.945,96.277 139.251,96.370 138.765 C 96.463 138.279,96.460 137.576,96.362 137.202 C 96.264 136.829,96.188 137.227,96.192 138.086 M87.221 140.039 C 87.224 141.113,87.300 141.506,87.390 140.913 C 87.479 140.319,87.477 139.440,87.384 138.959 C 87.292 138.479,87.218 138.965,87.221 140.039 M75.303 148.926 C 75.515 151.662,75.688 151.896,75.736 149.512 C 75.761 148.276,75.645 147.266,75.478 147.266 C 75.311 147.266,75.233 148.013,75.303 148.926 M70.000 150.859 C 69.672 151.188,69.531 153.351,69.531 158.086 C 69.531 164.350,69.746 165.686,70.545 164.393 C 70.718 164.113,70.652 164.048,70.373 164.221 C 69.719 164.625,69.736 151.514,70.391 150.859 C 70.648 150.602,70.771 150.391,70.664 150.391 C 70.557 150.391,70.258 150.602,70.000 150.859 M75.926 156.250 C 75.926 158.506,75.990 159.429,76.069 158.301 C 76.148 157.173,76.148 155.327,76.069 154.199 C 75.990 153.071,75.926 153.994,75.926 156.250 M171.230 163.281 C 171.230 165.107,171.298 165.854,171.380 164.941 C 171.462 164.028,171.462 162.534,171.380 161.621 C 171.298 160.708,171.230 161.455,171.230 163.281 M191.513 161.719 C 191.513 162.686,191.589 163.081,191.682 162.598 C 191.775 162.114,191.775 161.323,191.682 160.840 C 191.589 160.356,191.513 160.752,191.513 161.719 M207.916 170.983 C 208.509 171.073,209.388 171.071,209.869 170.978 C 210.349 170.885,209.863 170.812,208.789 170.815 C 207.715 170.818,207.322 170.894,207.916 170.983 M203.619 171.374 C 204.212 171.464,205.091 171.461,205.572 171.369 C 206.052 171.276,205.566 171.203,204.492 171.205 C 203.418 171.208,203.025 171.284,203.619 171.374 M200.488 171.754 C 200.864 171.852,201.479 171.852,201.855 171.754 C 202.231 171.655,201.924 171.575,201.172 171.575 C 200.420 171.575,200.112 171.655,200.488 171.754 M131.341 173.438 C 131.341 174.189,131.421 174.497,131.519 174.121 C 131.618 173.745,131.618 173.130,131.519 172.754 C 131.421 172.378,131.341 172.686,131.341 173.438 M99.707 175.269 C 100.083 175.368,100.698 175.368,101.074 175.269 C 101.450 175.171,101.143 175.091,100.391 175.091 C 99.639 175.091,99.331 175.171,99.707 175.269 M117.305 177.344 C 117.305 178.525,117.378 179.009,117.467 178.418 C 117.557 177.827,117.557 176.860,117.467 176.270 C 117.378 175.679,117.305 176.162,117.305 177.344 M233.278 178.026 C 236.004 178.093,240.575 178.093,243.434 178.026 C 246.293 177.960,244.062 177.905,238.477 177.905 C 232.891 177.904,230.551 177.959,233.278 178.026 M219.612 178.414 C 221.053 178.489,223.514 178.490,225.081 178.415 C 226.648 178.341,225.469 178.280,222.461 178.279 C 219.453 178.279,218.171 178.339,219.612 178.414 M251.678 178.416 C 253.353 178.489,255.990 178.489,257.537 178.415 C 259.085 178.341,257.715 178.281,254.492 178.281 C 251.270 178.282,250.003 178.342,251.678 178.416 M66.004 183.496 L 63.477 186.133 66.113 183.605 C 67.563 182.215,68.750 181.028,68.750 180.968 C 68.750 180.681,68.352 181.047,66.004 183.496 M265.430 181.641 L 259.961 181.870 265.309 181.950 C 268.543 181.999,270.752 181.877,270.898 181.641 C 271.031 181.426,271.086 181.286,271.019 181.331 C 270.953 181.375,268.438 181.515,265.430 181.641 M245.801 182.321 C 247.251 182.396,249.624 182.396,251.074 182.321 C 252.524 182.246,251.338 182.184,248.438 182.184 C 245.537 182.184,244.351 182.246,245.801 182.321 M200.879 185.426 C 201.255 185.524,201.870 185.524,202.246 185.426 C 202.622 185.327,202.314 185.247,201.563 185.247 C 200.811 185.247,200.503 185.327,200.879 185.426 M238.184 187.399 C 239.741 187.474,242.290 187.474,243.848 187.399 C 245.405 187.325,244.131 187.265,241.016 187.265 C 237.900 187.265,236.626 187.325,238.184 187.399 M247.949 187.783 C 248.647 187.869,249.790 187.869,250.488 187.783 C 251.187 187.696,250.615 187.625,249.219 187.625 C 247.822 187.625,247.251 187.696,247.949 187.783 M218.457 190.910 C 219.263 190.994,220.581 190.994,221.387 190.910 C 222.192 190.825,221.533 190.756,219.922 190.756 C 218.311 190.756,217.651 190.825,218.457 190.910 M75.780 196.759 C 75.673 199.811,75.723 202.170,75.891 202.001 C 76.058 201.833,76.146 199.336,76.085 196.453 L 75.974 191.211 75.780 196.759 M179.204 192.464 C 179.690 192.557,180.393 192.554,180.766 192.456 C 181.140 192.358,180.742 192.282,179.883 192.286 C 179.023 192.290,178.718 192.370,179.204 192.464 M334.151 201.367 C 334.151 206.094,334.208 207.974,334.276 205.545 C 334.345 203.116,334.345 199.249,334.276 196.951 C 334.207 194.653,334.151 196.641,334.151 201.367 M65.359 200.781 C 65.359 202.178,65.430 202.749,65.517 202.051 C 65.604 201.353,65.604 200.210,65.517 199.512 C 65.430 198.813,65.359 199.385,65.359 200.781 M134.936 203.613 L 133.789 204.883 135.059 203.736 C 136.242 202.666,136.508 202.344,136.206 202.344 C 136.139 202.344,135.567 202.915,134.936 203.613 M48.612 215.430 C 48.612 222.305,48.665 225.062,48.730 221.557 C 48.795 218.053,48.795 212.428,48.730 209.057 C 48.665 205.687,48.612 208.555,48.612 215.430 M65.750 206.250 C 65.750 207.646,65.821 208.218,65.908 207.520 C 65.994 206.821,65.994 205.679,65.908 204.980 C 65.821 204.282,65.750 204.854,65.750 206.250 M334.075 211.328 C 334.075 212.080,334.155 212.388,334.254 212.012 C 334.352 211.636,334.352 211.021,334.254 210.645 C 334.155 210.269,334.075 210.576,334.075 211.328 M334.118 216.211 C 334.120 217.930,334.188 218.584,334.271 217.665 C 334.353 216.747,334.352 215.340,334.268 214.540 C 334.184 213.740,334.117 214.492,334.118 216.211 M241.406 224.609 L 239.258 224.873 241.286 224.936 C 242.401 224.971,243.422 224.824,243.555 224.609 C 243.687 224.395,243.742 224.247,243.675 224.282 C 243.609 224.317,242.588 224.465,241.406 224.609 M99.700 226.953 C 99.700 227.705,99.780 228.013,99.879 227.637 C 99.977 227.261,99.977 226.646,99.879 226.270 C 99.780 225.894,99.700 226.201,99.700 226.953 M222.569 227.630 C 223.488 227.713,224.894 227.712,225.694 227.628 C 226.494 227.544,225.742 227.476,224.023 227.478 C 222.305 227.479,221.650 227.548,222.569 227.630 M190.918 228.020 C 191.831 228.103,193.325 228.103,194.238 228.020 C 195.151 227.938,194.404 227.871,192.578 227.871 C 190.752 227.871,190.005 227.938,190.918 228.020 M207.324 228.026 C 209.741 228.095,213.696 228.095,216.113 228.026 C 218.530 227.957,216.553 227.901,211.719 227.901 C 206.885 227.901,204.907 227.957,207.324 228.026 M230.957 228.026 C 233.052 228.096,236.479 228.096,238.574 228.026 C 240.669 227.955,238.955 227.898,234.766 227.898 C 230.576 227.898,228.862 227.955,230.957 228.026 M283.501 228.011 C 283.987 228.104,284.690 228.101,285.063 228.003 C 285.437 227.905,285.039 227.829,284.180 227.833 C 283.320 227.837,283.015 227.917,283.501 228.011 M184.277 228.411 C 185.190 228.493,186.685 228.493,187.598 228.411 C 188.511 228.329,187.764 228.261,185.938 228.261 C 184.111 228.261,183.364 228.329,184.277 228.411 M243.652 228.408 C 244.351 228.494,245.493 228.494,246.191 228.408 C 246.890 228.321,246.318 228.250,244.922 228.250 C 243.525 228.250,242.954 228.321,243.652 228.408 M280.376 228.401 C 280.862 228.495,281.565 228.491,281.938 228.393 C 282.312 228.296,281.914 228.219,281.055 228.224 C 280.195 228.228,279.890 228.308,280.376 228.401 M99.382 235.938 C 99.382 240.127,99.440 241.841,99.510 239.746 C 99.580 237.651,99.580 234.224,99.510 232.129 C 99.440 230.034,99.382 231.748,99.382 235.938 M180.376 228.792 C 180.862 228.885,181.565 228.882,181.938 228.784 C 182.312 228.686,181.914 228.610,181.055 228.614 C 180.195 228.618,179.890 228.698,180.376 228.792 M248.340 228.791 C 248.823 228.884,249.614 228.884,250.098 228.791 C 250.581 228.698,250.186 228.622,249.219 228.622 C 248.252 228.622,247.856 228.698,248.340 228.791 M176.666 229.187 C 177.259 229.276,178.138 229.274,178.619 229.181 C 179.099 229.089,178.613 229.015,177.539 229.018 C 176.465 229.021,176.072 229.097,176.666 229.187 M251.855 229.182 C 252.339 229.275,253.130 229.275,253.613 229.182 C 254.097 229.089,253.701 229.013,252.734 229.013 C 251.768 229.013,251.372 229.089,251.855 229.182 M72.415 236.133 C 72.416 238.711,72.479 239.715,72.555 238.364 C 72.632 237.012,72.631 234.903,72.554 233.676 C 72.477 232.449,72.414 233.555,72.415 236.133 M278.032 231.917 C 278.518 232.010,279.221 232.007,279.594 231.909 C 279.968 231.811,279.570 231.735,278.711 231.739 C 277.852 231.743,277.546 231.823,278.032 231.917 M179.991 235.443 C 180.910 235.525,182.316 235.524,183.116 235.440 C 183.916 235.356,183.164 235.289,181.445 235.290 C 179.727 235.292,179.072 235.360,179.991 235.443 M244.447 235.445 C 245.582 235.524,247.340 235.523,248.353 235.443 C 249.366 235.363,248.438 235.298,246.289 235.299 C 244.141 235.300,243.312 235.366,244.447 235.445 M174.512 235.829 C 175.210 235.916,176.353 235.916,177.051 235.829 C 177.749 235.743,177.178 235.672,175.781 235.672 C 174.385 235.672,173.813 235.743,174.512 235.829 M252.051 235.834 C 253.071 235.914,254.741 235.914,255.762 235.834 C 256.782 235.754,255.947 235.688,253.906 235.688 C 251.865 235.688,251.030 235.754,252.051 235.834 M150.488 238.551 C 150.864 238.649,151.479 238.649,151.855 238.551 C 152.231 238.452,151.924 238.372,151.172 238.372 C 150.420 238.372,150.112 238.452,150.488 238.551 M288.188 238.558 C 288.674 238.651,289.377 238.647,289.751 238.550 C 290.124 238.452,289.727 238.375,288.867 238.380 C 288.008 238.384,287.702 238.464,288.188 238.558 M291.313 238.948 C 291.799 239.042,292.502 239.038,292.876 238.940 C 293.249 238.842,292.852 238.766,291.992 238.770 C 291.133 238.775,290.827 238.855,291.313 238.948 M72.795 244.727 C 72.794 246.660,72.860 247.500,72.942 246.594 C 73.024 245.687,73.025 244.105,72.944 243.078 C 72.863 242.051,72.796 242.793,72.795 244.727 M202.665 241.699 C 210.039 241.759,221.992 241.759,229.228 241.699 C 236.463 241.640,230.430 241.591,215.820 241.591 C 201.211 241.591,195.291 241.640,202.665 241.699 M184.659 242.079 C 185.353 242.165,186.583 242.167,187.394 242.082 C 188.204 241.997,187.637 241.927,186.133 241.925 C 184.629 241.923,183.966 241.993,184.659 242.079 M244.447 242.085 C 245.582 242.164,247.340 242.164,248.353 242.083 C 249.366 242.003,248.438 241.939,246.289 241.940 C 244.141 241.941,243.312 242.006,244.447 242.085 M180.957 242.457 C 181.333 242.555,181.948 242.555,182.324 242.457 C 182.700 242.359,182.393 242.278,181.641 242.278 C 180.889 242.278,180.581 242.359,180.957 242.457 M251.465 242.470 C 252.163 242.557,253.306 242.557,254.004 242.470 C 254.702 242.383,254.131 242.313,252.734 242.313 C 251.338 242.313,250.767 242.383,251.465 242.470 M177.832 242.847 C 178.208 242.946,178.823 242.946,179.199 242.847 C 179.575 242.749,179.268 242.669,178.516 242.669 C 177.764 242.669,177.456 242.749,177.832 242.847 M256.738 242.858 C 257.329 242.947,258.296 242.947,258.887 242.858 C 259.478 242.768,258.994 242.695,257.813 242.695 C 256.631 242.695,256.147 242.768,256.738 242.858 M172.949 243.251 C 173.647 243.338,174.790 243.338,175.488 243.251 C 176.187 243.165,175.615 243.094,174.219 243.094 C 172.822 243.094,172.251 243.165,172.949 243.251 M261.426 243.238 C 261.802 243.336,262.417 243.336,262.793 243.238 C 263.169 243.140,262.861 243.059,262.109 243.059 C 261.357 243.059,261.050 243.140,261.426 243.238 M275.684 244.416 C 276.167 244.509,276.958 244.509,277.441 244.416 C 277.925 244.323,277.529 244.247,276.563 244.247 C 275.596 244.247,275.200 244.323,275.684 244.416 M156.934 244.807 C 157.417 244.900,158.208 244.900,158.691 244.807 C 159.175 244.714,158.779 244.638,157.813 244.638 C 156.846 244.638,156.450 244.714,156.934 244.807 M279.590 244.807 C 280.073 244.900,280.864 244.900,281.348 244.807 C 281.831 244.714,281.436 244.638,280.469 244.638 C 279.502 244.638,279.106 244.714,279.590 244.807 M154.004 245.191 C 154.380 245.289,154.995 245.289,155.371 245.191 C 155.747 245.093,155.439 245.013,154.688 245.013 C 153.936 245.013,153.628 245.093,154.004 245.191 M282.910 245.191 C 283.286 245.289,283.901 245.289,284.277 245.191 C 284.653 245.093,284.346 245.013,283.594 245.013 C 282.842 245.013,282.534 245.093,282.910 245.191 M151.270 245.582 C 151.646 245.680,152.261 245.680,152.637 245.582 C 153.013 245.484,152.705 245.403,151.953 245.403 C 151.201 245.403,150.894 245.484,151.270 245.582 M178.428 249.115 C 179.347 249.197,180.753 249.196,181.553 249.112 C 182.353 249.028,181.602 248.961,179.883 248.962 C 178.164 248.963,177.510 249.032,178.428 249.115 M259.668 249.114 C 260.581 249.196,262.075 249.196,262.988 249.114 C 263.901 249.032,263.154 248.965,261.328 248.965 C 259.502 248.965,258.755 249.032,259.668 249.114 M173.347 249.502 C 174.049 249.589,175.104 249.587,175.691 249.498 C 176.278 249.409,175.703 249.338,174.414 249.340 C 173.125 249.342,172.645 249.415,173.347 249.502 M265.909 249.501 C 266.603 249.587,267.833 249.588,268.644 249.504 C 269.454 249.419,268.887 249.349,267.383 249.347 C 265.879 249.345,265.216 249.414,265.909 249.501 M361.836 253.125 C 361.836 254.307,361.909 254.790,361.999 254.199 C 362.088 253.608,362.088 252.642,361.999 252.051 C 361.909 251.460,361.836 251.943,361.836 253.125 M143.262 252.619 C 143.745 252.713,144.536 252.713,145.020 252.619 C 145.503 252.526,145.107 252.450,144.141 252.450 C 143.174 252.450,142.778 252.526,143.262 252.619 M296.391 252.620 C 296.877 252.713,297.580 252.710,297.954 252.612 C 298.327 252.514,297.930 252.438,297.070 252.442 C 296.211 252.447,295.905 252.527,296.391 252.620 M56.007 257.031 C 56.007 259.502,56.071 260.513,56.148 259.277 C 56.226 258.042,56.226 256.021,56.148 254.785 C 56.071 253.550,56.007 254.561,56.007 257.031 M361.418 264.618 C 361.340 272.409,361.241 273.677,360.659 274.383 L 359.990 275.195 360.862 274.396 C 361.722 273.607,361.732 273.477,361.621 264.630 L 361.508 255.664 361.418 264.618 M215.332 265.519 C 216.138 265.603,217.456 265.603,218.262 265.519 C 219.067 265.435,218.408 265.366,216.797 265.366 C 215.186 265.366,214.526 265.435,215.332 265.519 M223.535 265.504 C 223.911 265.602,224.526 265.602,224.902 265.504 C 225.278 265.405,224.971 265.325,224.219 265.325 C 223.467 265.325,223.159 265.405,223.535 265.504 M226.270 265.504 C 226.646 265.602,227.261 265.602,227.637 265.504 C 228.013 265.405,227.705 265.325,226.953 265.325 C 226.201 265.325,225.894 265.405,226.270 265.504 M234.863 265.504 C 235.239 265.602,235.854 265.602,236.230 265.504 C 236.606 265.405,236.299 265.325,235.547 265.325 C 234.795 265.325,234.487 265.405,234.863 265.504 M237.598 265.504 C 237.974 265.602,238.589 265.602,238.965 265.504 C 239.341 265.405,239.033 265.325,238.281 265.325 C 237.529 265.325,237.222 265.405,237.598 265.504 M240.532 265.511 C 241.018 265.604,241.721 265.601,242.094 265.503 C 242.468 265.405,242.070 265.329,241.211 265.333 C 240.352 265.337,240.046 265.417,240.532 265.511 M191.895 265.916 C 193.989 265.986,197.417 265.986,199.512 265.916 C 201.606 265.846,199.893 265.789,195.703 265.789 C 191.514 265.789,189.800 265.846,191.895 265.916 M240.995 269.824 L 239.648 271.289 241.113 269.943 C 241.919 269.203,242.578 268.543,242.578 268.478 C 242.578 268.180,242.248 268.461,240.995 269.824 M150.684 269.026 C 151.167 269.119,151.958 269.119,152.441 269.026 C 152.925 268.933,152.529 268.856,151.563 268.856 C 150.596 268.856,150.200 268.933,150.684 269.026 M99.981 279.015 C 100.434 279.617,100.380 279.854,99.580 280.773 L 98.655 281.836 99.804 280.764 C 100.931 279.714,100.939 279.679,100.205 279.006 C 99.490 278.351,99.480 278.352,99.981 279.015 M232.585 292.773 C 232.585 296.855,232.643 298.472,232.713 296.366 C 232.784 294.261,232.783 290.921,232.713 288.945 C 232.642 286.968,232.584 288.691,232.585 292.773 M270.438 289.063 C 270.438 290.459,270.508 291.030,270.595 290.332 C 270.682 289.634,270.682 288.491,270.595 287.793 C 270.508 287.095,270.438 287.666,270.438 289.063 M265.716 289.844 C 265.716 290.596,265.796 290.903,265.894 290.527 C 265.993 290.151,265.993 289.536,265.894 289.160 C 265.796 288.784,265.716 289.092,265.716 289.844 M266.150 294.336 C 266.151 296.055,266.220 296.709,266.302 295.790 C 266.385 294.872,266.384 293.465,266.300 292.665 C 266.216 291.865,266.148 292.617,266.150 294.336 M120.020 293.164 C 120.025 294.023,120.105 294.329,120.198 293.843 C 120.292 293.357,120.288 292.654,120.190 292.281 C 120.092 291.907,120.016 292.305,120.020 293.164 M270.050 294.336 C 270.052 295.840,270.122 296.407,270.207 295.597 C 270.292 294.786,270.290 293.556,270.204 292.862 C 270.118 292.169,270.048 292.832,270.050 294.336 M188.035 296.094 C 188.035 298.350,188.100 299.272,188.179 298.145 C 188.258 297.017,188.258 295.171,188.179 294.043 C 188.100 292.915,188.035 293.838,188.035 296.094 M119.638 296.484 C 119.638 297.451,119.714 297.847,119.807 297.363 C 119.900 296.880,119.900 296.089,119.807 295.605 C 119.714 295.122,119.638 295.518,119.638 296.484 M270.411 298.633 C 270.415 299.492,270.495 299.798,270.589 299.312 C 270.682 298.826,270.679 298.123,270.581 297.749 C 270.483 297.376,270.407 297.773,270.411 298.633 M265.716 298.828 C 265.716 299.580,265.796 299.888,265.894 299.512 C 265.993 299.136,265.993 298.521,265.894 298.145 C 265.796 297.769,265.716 298.076,265.716 298.828 M120.034 300.195 C 120.037 301.270,120.112 301.663,120.202 301.069 C 120.292 300.475,120.290 299.596,120.197 299.116 C 120.104 298.635,120.031 299.121,120.034 300.195 M52.465 301.367 C 52.467 302.656,52.540 303.137,52.627 302.434 C 52.714 301.732,52.712 300.678,52.623 300.091 C 52.534 299.504,52.463 300.078,52.465 301.367 M88.770 304.492 C 88.775 305.352,88.855 305.657,88.948 305.171 C 89.042 304.685,89.038 303.982,88.940 303.609 C 88.842 303.235,88.766 303.633,88.770 304.492 M311.828 303.413 C 312.855 303.493,314.437 303.492,315.344 303.410 C 316.250 303.329,315.410 303.262,313.477 303.264 C 311.543 303.265,310.801 303.332,311.828 303.413 M56.244 305.548 C 56.140 306.773,56.197 307.633,56.371 307.458 C 56.545 307.283,56.630 306.281,56.560 305.230 L 56.433 303.320 56.244 305.548 M51.998 305.543 C 51.974 306.551,52.092 307.462,52.262 307.567 C 52.432 307.672,52.510 307.111,52.435 306.320 C 52.206 303.905,52.046 303.620,51.998 305.543 M71.458 306.055 C 71.316 307.041,71.072 307.265,69.922 307.468 L 68.555 307.710 69.776 307.761 C 71.211 307.821,71.997 307.046,71.781 305.783 C 71.647 305.002,71.604 305.038,71.458 306.055 " stroke="none" fill="#747474" fill-rule="evenodd"></path><path id="path4" d="M231.938 112.386 C 232.424 112.479,233.127 112.476,233.501 112.378 C 233.874 112.280,233.477 112.204,232.617 112.208 C 231.758 112.212,231.452 112.292,231.938 112.386 M96.616 142.578 C 96.616 144.189,96.685 144.849,96.769 144.043 C 96.853 143.237,96.853 141.919,96.769 141.113 C 96.685 140.308,96.616 140.967,96.616 142.578 M151.860 154.964 C 152.346 155.057,153.049 155.054,153.423 154.956 C 153.796 154.858,153.398 154.782,152.539 154.786 C 151.680 154.790,151.374 154.870,151.860 154.964 M230.978 165.135 C 233.300 165.205,236.991 165.204,239.181 165.135 C 241.372 165.065,239.473 165.009,234.961 165.009 C 230.449 165.009,228.657 165.066,230.978 165.135 M142.328 169.531 C 142.328 171.572,142.394 172.407,142.475 171.387 C 142.555 170.366,142.555 168.696,142.475 167.676 C 142.394 166.655,142.328 167.490,142.328 169.531 M294.265 197.949 C 298.952 198.011,306.511 198.011,311.062 197.949 C 315.612 197.886,311.777 197.835,302.539 197.835 C 293.301 197.835,289.577 197.887,294.265 197.949 M195.411 210.742 C 195.415 211.602,195.495 211.907,195.589 211.421 C 195.682 210.935,195.679 210.232,195.581 209.859 C 195.483 209.485,195.407 209.883,195.411 210.742 M195.846 216.211 C 195.847 218.359,195.912 219.188,195.992 218.053 C 196.071 216.918,196.070 215.160,195.990 214.147 C 195.910 213.134,195.845 214.063,195.846 216.211 M196.211 222.656 C 196.211 223.838,196.284 224.321,196.374 223.730 C 196.463 223.140,196.463 222.173,196.374 221.582 C 196.284 220.991,196.211 221.475,196.211 222.656 M172.949 229.573 C 173.433 229.666,174.224 229.666,174.707 229.573 C 175.190 229.479,174.795 229.403,173.828 229.403 C 172.861 229.403,172.466 229.479,172.949 229.573 M255.762 229.573 C 256.245 229.666,257.036 229.666,257.520 229.573 C 258.003 229.479,257.607 229.403,256.641 229.403 C 255.674 229.403,255.278 229.479,255.762 229.573 M218.088 247.948 C 220.625 248.016,224.668 248.016,227.073 247.948 C 229.478 247.879,227.402 247.823,222.461 247.824 C 217.520 247.824,215.552 247.880,218.088 247.948 M196.973 248.339 C 199.927 248.405,204.761 248.405,207.715 248.339 C 210.669 248.273,208.252 248.218,202.344 248.218 C 196.436 248.218,194.019 248.273,196.973 248.339 M236.643 248.339 C 239.288 248.407,243.506 248.406,246.018 248.338 C 248.531 248.270,246.367 248.215,241.211 248.215 C 236.055 248.216,233.999 248.271,236.643 248.339 M185.059 248.725 C 186.187 248.804,188.032 248.804,189.160 248.725 C 190.288 248.647,189.365 248.582,187.109 248.582 C 184.854 248.582,183.931 248.647,185.059 248.725 M252.441 248.725 C 253.462 248.805,255.132 248.805,256.152 248.725 C 257.173 248.644,256.338 248.578,254.297 248.578 C 252.256 248.578,251.421 248.644,252.441 248.725 M73.153 250.391 C 73.153 251.357,73.229 251.753,73.323 251.270 C 73.416 250.786,73.416 249.995,73.323 249.512 C 73.229 249.028,73.153 249.424,73.153 250.391 M182.520 266.303 C 183.540 266.383,185.210 266.383,186.230 266.303 C 187.251 266.222,186.416 266.156,184.375 266.156 C 182.334 266.156,181.499 266.222,182.520 266.303 M255.772 266.302 C 256.691 266.385,258.097 266.384,258.897 266.300 C 259.697 266.216,258.945 266.148,257.227 266.150 C 255.508 266.151,254.853 266.220,255.772 266.302 M113.793 300.977 C 113.795 302.266,113.868 302.746,113.955 302.044 C 114.042 301.342,114.040 300.287,113.951 299.700 C 113.862 299.113,113.791 299.688,113.793 300.977 M40.737 305.664 C 40.740 306.738,40.816 307.131,40.905 306.538 C 40.995 305.944,40.993 305.065,40.900 304.584 C 40.807 304.104,40.734 304.590,40.737 305.664 " stroke="none" fill="#7c7c7c" fill-rule="evenodd"></path><path id="path5" d="M255.251 115.234 C 255.251 121.572,255.305 124.165,255.370 120.996 C 255.436 117.827,255.436 112.642,255.370 109.473 C 255.305 106.304,255.251 108.896,255.251 115.234 M208.345 116.287 C 208.767 116.710,209.766 116.769,209.766 116.372 C 209.766 116.176,209.385 116.016,208.919 116.016 C 208.454 116.016,208.195 116.138,208.345 116.287 M212.793 117.087 C 214.351 117.161,216.899 117.161,218.457 117.087 C 220.015 117.013,218.740 116.952,215.625 116.952 C 212.510 116.952,211.235 117.013,212.793 117.087 M122.039 126.172 C 122.039 130.361,122.096 132.075,122.166 129.980 C 122.236 127.886,122.236 124.458,122.166 122.363 C 122.096 120.269,122.039 121.982,122.039 126.172 M229.004 120.582 C 229.380 120.680,229.995 120.680,230.371 120.582 C 230.747 120.484,230.439 120.403,229.688 120.403 C 228.936 120.403,228.628 120.484,229.004 120.582 M223.926 121.363 C 224.302 121.461,224.917 121.461,225.293 121.363 C 225.669 121.265,225.361 121.184,224.609 121.184 C 223.857 121.184,223.550 121.265,223.926 121.363 M111.875 131.836 C 111.876 135.059,111.936 136.325,112.009 134.650 C 112.083 132.975,112.082 130.339,112.008 128.791 C 111.934 127.243,111.874 128.613,111.875 131.836 M87.257 146.484 C 87.257 148.955,87.321 149.966,87.398 148.730 C 87.476 147.495,87.476 145.474,87.398 144.238 C 87.321 143.003,87.257 144.014,87.257 146.484 M75.697 148.730 C 75.900 151.940,76.064 152.244,76.119 149.512 C 76.148 148.062,76.039 146.875,75.876 146.875 C 75.713 146.875,75.633 147.710,75.697 148.730 M246.191 159.254 C 246.567 159.352,247.183 159.352,247.559 159.254 C 247.935 159.155,247.627 159.075,246.875 159.075 C 246.123 159.075,245.815 159.155,246.191 159.254 M159.443 165.114 C 159.406 167.733,159.507 169.958,159.668 170.058 C 159.829 170.158,159.914 168.719,159.856 166.859 C 159.672 160.893,159.513 160.223,159.443 165.114 M289.630 175.195 C 289.630 183.359,289.682 186.755,289.745 182.741 C 289.809 178.726,289.809 172.047,289.746 167.897 C 289.682 163.747,289.630 167.031,289.630 175.195 M192.676 163.561 C 193.267 163.651,194.233 163.651,194.824 163.561 C 195.415 163.472,194.932 163.398,193.750 163.398 C 192.568 163.398,192.085 163.472,192.676 163.561 M257.129 165.914 C 258.364 165.991,260.386 165.991,261.621 165.914 C 262.856 165.836,261.846 165.773,259.375 165.773 C 256.904 165.773,255.894 165.836,257.129 165.914 M265.538 166.302 C 266.456 166.385,267.863 166.384,268.663 166.300 C 269.463 166.216,268.711 166.148,266.992 166.150 C 265.273 166.151,264.619 166.220,265.538 166.302 M271.394 166.689 C 272.096 166.776,273.150 166.774,273.737 166.685 C 274.324 166.596,273.750 166.525,272.461 166.527 C 271.172 166.529,270.692 166.602,271.394 166.689 M275.684 167.073 C 276.167 167.166,276.958 167.166,277.441 167.073 C 277.925 166.979,277.529 166.903,276.563 166.903 C 275.596 166.903,275.200 166.979,275.684 167.073 M200.879 171.363 C 201.255 171.461,201.870 171.461,202.246 171.363 C 202.622 171.265,202.314 171.184,201.563 171.184 C 200.811 171.184,200.503 171.265,200.879 171.363 M198.145 171.754 C 198.521 171.852,199.136 171.852,199.512 171.754 C 199.888 171.655,199.580 171.575,198.828 171.575 C 198.076 171.575,197.769 171.655,198.145 171.754 M189.941 172.926 C 190.317 173.024,190.933 173.024,191.309 172.926 C 191.685 172.827,191.377 172.747,190.625 172.747 C 189.873 172.747,189.565 172.827,189.941 172.926 M198.535 179.581 C 199.341 179.666,200.659 179.666,201.465 179.581 C 202.271 179.497,201.611 179.428,200.000 179.428 C 198.389 179.428,197.729 179.497,198.535 179.581 M60.659 181.445 C 60.662 182.520,60.737 182.913,60.827 182.319 C 60.917 181.725,60.915 180.846,60.822 180.366 C 60.729 179.885,60.656 180.371,60.659 181.445 M247.754 181.932 C 250.063 182.001,253.843 182.001,256.152 181.932 C 258.462 181.863,256.572 181.807,251.953 181.807 C 247.334 181.807,245.444 181.863,247.754 181.932 M50.550 188.281 C 50.550 191.826,50.609 193.276,50.681 191.504 C 50.754 189.731,50.754 186.831,50.681 185.059 C 50.609 183.286,50.550 184.736,50.550 188.281 M200.879 185.035 C 201.255 185.133,201.870 185.133,202.246 185.035 C 202.622 184.937,202.314 184.856,201.563 184.856 C 200.811 184.856,200.503 184.937,200.879 185.035 M208.496 187.402 C 213.491 187.464,221.665 187.464,226.660 187.402 C 231.655 187.340,227.568 187.290,217.578 187.290 C 207.588 187.290,203.501 187.340,208.496 187.402 M238.362 187.789 C 239.803 187.864,242.264 187.865,243.831 187.790 C 245.398 187.716,244.219 187.655,241.211 187.654 C 238.203 187.654,236.921 187.714,238.362 187.789 M95.802 189.648 C 95.806 190.508,95.886 190.813,95.979 190.327 C 96.073 189.842,96.069 189.138,95.972 188.765 C 95.874 188.392,95.797 188.789,95.802 189.648 M325.098 192.868 C 326.763 192.942,329.487 192.942,331.152 192.868 C 332.817 192.795,331.455 192.735,328.125 192.735 C 324.795 192.735,323.433 192.795,325.098 192.868 M84.096 195.508 C 84.099 196.582,84.175 196.975,84.265 196.381 C 84.354 195.788,84.352 194.909,84.259 194.428 C 84.167 193.948,84.093 194.434,84.096 195.508 M243.132 213.672 C 243.132 217.861,243.190 219.575,243.260 217.480 C 243.330 215.386,243.330 211.958,243.260 209.863 C 243.190 207.769,243.132 209.482,243.132 213.672 M162.599 209.961 C 162.603 210.820,162.683 211.126,162.776 210.640 C 162.870 210.154,162.866 209.451,162.768 209.077 C 162.671 208.704,162.594 209.102,162.599 209.961 M202.904 218.164 C 202.903 223.535,202.959 225.787,203.026 223.167 C 203.093 220.548,203.094 216.153,203.026 213.402 C 202.959 210.650,202.904 212.793,202.904 218.164 M238.380 212.305 C 238.384 213.164,238.464 213.470,238.558 212.984 C 238.651 212.498,238.647 211.795,238.550 211.421 C 238.452 211.048,238.375 211.445,238.380 212.305 M162.278 221.094 C 162.278 226.357,162.334 228.511,162.401 225.879 C 162.469 223.247,162.469 218.940,162.401 216.309 C 162.334 213.677,162.278 215.830,162.278 221.094 M238.824 218.945 C 238.824 221.738,238.887 222.830,238.962 221.370 C 239.037 219.911,239.037 217.626,238.961 216.292 C 238.885 214.959,238.823 216.152,238.824 218.945 M127.920 226.530 C 127.928 235.713,128.013 237.263,128.516 237.400 C 128.943 237.516,128.971 237.467,128.620 237.218 C 128.263 236.965,128.108 234.140,128.024 226.348 L 127.910 215.820 127.920 226.530 M57.858 218.239 C 57.833 219.354,57.948 220.350,58.113 220.452 C 58.278 220.554,58.356 219.905,58.287 219.010 C 58.085 216.381,57.906 216.062,57.858 218.239 M155.575 217.969 C 155.575 218.936,155.651 219.331,155.744 218.848 C 155.838 218.364,155.838 217.573,155.744 217.090 C 155.651 216.606,155.575 217.002,155.575 217.969 M156.011 224.805 C 156.012 227.598,156.074 228.689,156.149 227.230 C 156.225 225.771,156.224 223.486,156.148 222.152 C 156.072 220.818,156.010 222.012,156.011 224.805 M243.340 222.939 C 243.233 223.847,243.294 224.440,243.476 224.258 C 243.658 224.076,243.746 223.334,243.671 222.608 C 243.539 221.322,243.530 221.330,243.340 222.939 M82.593 223.145 L 81.445 224.414 82.715 223.267 C 83.898 222.197,84.164 221.875,83.862 221.875 C 83.795 221.875,83.224 222.446,82.593 223.145 M166.895 230.347 C 167.271 230.446,167.886 230.446,168.262 230.347 C 168.638 230.249,168.330 230.169,167.578 230.169 C 166.826 230.169,166.519 230.249,166.895 230.347 M263.184 230.354 C 263.667 230.447,264.458 230.447,264.941 230.354 C 265.425 230.261,265.029 230.185,264.063 230.185 C 263.096 230.185,262.700 230.261,263.184 230.354 M278.223 232.301 C 278.599 232.399,279.214 232.399,279.590 232.301 C 279.966 232.202,279.658 232.122,278.906 232.122 C 278.154 232.122,277.847 232.202,278.223 232.301 M174.909 235.439 C 175.611 235.526,176.666 235.524,177.253 235.435 C 177.840 235.346,177.266 235.275,175.977 235.277 C 174.688 235.279,174.207 235.352,174.909 235.439 M252.063 235.444 C 253.090 235.525,254.672 235.524,255.578 235.442 C 256.485 235.360,255.645 235.294,253.711 235.295 C 251.777 235.296,251.036 235.363,252.063 235.444 M77.918 243.842 C 77.929 251.489,77.984 252.143,78.621 252.201 C 79.089 252.244,79.123 252.205,78.726 252.082 C 78.235 251.928,78.121 250.578,78.023 243.723 L 77.906 235.546 77.918 243.842 M170.416 235.827 C 171.009 235.917,171.888 235.915,172.369 235.822 C 172.849 235.729,172.363 235.656,171.289 235.659 C 170.215 235.662,169.822 235.737,170.416 235.827 M259.288 235.833 C 260.206 235.916,261.613 235.915,262.413 235.831 C 263.213 235.747,262.461 235.679,260.742 235.681 C 259.023 235.682,258.369 235.751,259.288 235.833 M167.094 236.214 C 167.580 236.307,168.283 236.304,168.657 236.206 C 169.030 236.108,168.633 236.032,167.773 236.036 C 166.914 236.040,166.608 236.120,167.094 236.214 M265.128 236.219 C 265.821 236.306,267.052 236.307,267.862 236.223 C 268.673 236.138,268.105 236.067,266.602 236.066 C 265.098 236.064,264.435 236.133,265.128 236.219 M164.160 236.597 C 164.536 236.696,165.151 236.696,165.527 236.597 C 165.903 236.499,165.596 236.419,164.844 236.419 C 164.092 236.419,163.784 236.499,164.160 236.597 M270.612 236.611 C 271.315 236.698,272.369 236.696,272.956 236.607 C 273.543 236.518,272.969 236.447,271.680 236.449 C 270.391 236.451,269.910 236.524,270.612 236.611 M161.235 236.995 C 161.721 237.088,162.424 237.085,162.798 236.987 C 163.171 236.889,162.773 236.813,161.914 236.817 C 161.055 236.822,160.749 236.902,161.235 236.995 M274.902 236.994 C 275.386 237.088,276.177 237.088,276.660 236.994 C 277.144 236.901,276.748 236.825,275.781 236.825 C 274.814 236.825,274.419 236.901,274.902 236.994 M278.418 237.385 C 278.901 237.478,279.692 237.478,280.176 237.385 C 280.659 237.292,280.264 237.216,279.297 237.216 C 278.330 237.216,277.935 237.292,278.418 237.385 M43.927 257.617 C 43.927 265.781,43.979 269.177,44.042 265.162 C 44.106 261.148,44.106 254.469,44.043 250.319 C 43.979 246.169,43.927 249.453,43.927 257.617 M60.712 251.367 C 60.713 255.879,60.769 257.671,60.839 255.350 C 60.908 253.029,60.907 249.337,60.838 247.147 C 60.769 244.956,60.712 246.855,60.712 251.367 M166.699 244.026 C 167.183 244.119,167.974 244.119,168.457 244.026 C 168.940 243.933,168.545 243.856,167.578 243.856 C 166.611 243.856,166.216 243.933,166.699 244.026 M268.066 244.030 C 268.657 244.119,269.624 244.119,270.215 244.030 C 270.806 243.940,270.322 243.867,269.141 243.867 C 267.959 243.867,267.476 243.940,268.066 244.030 M141.704 247.151 C 142.190 247.245,142.893 247.241,143.266 247.143 C 143.640 247.046,143.242 246.969,142.383 246.974 C 141.523 246.978,141.218 247.058,141.704 247.151 M55.958 250.586 C 55.962 251.445,56.042 251.751,56.136 251.265 C 56.229 250.779,56.226 250.076,56.128 249.702 C 56.030 249.329,55.954 249.727,55.958 250.586 M169.434 249.494 C 169.917 249.588,170.708 249.588,171.191 249.494 C 171.675 249.401,171.279 249.325,170.313 249.325 C 169.346 249.325,168.950 249.401,169.434 249.494 M271.191 249.499 C 271.782 249.588,272.749 249.588,273.340 249.499 C 273.931 249.409,273.447 249.336,272.266 249.336 C 271.084 249.336,270.601 249.409,271.191 249.499 M118.359 251.563 C 117.574 251.814,117.536 251.878,118.164 251.887 C 118.594 251.893,119.297 251.747,119.727 251.563 C 120.722 251.135,119.695 251.135,118.359 251.563 M296.191 252.222 C 296.567 252.321,297.183 252.321,297.559 252.222 C 297.935 252.124,297.627 252.044,296.875 252.044 C 296.123 252.044,295.815 252.124,296.191 252.222 M140.332 252.613 C 140.708 252.711,141.323 252.711,141.699 252.613 C 142.075 252.515,141.768 252.434,141.016 252.434 C 140.264 252.434,139.956 252.515,140.332 252.613 M299.516 252.620 C 300.002 252.713,300.705 252.710,301.079 252.612 C 301.452 252.514,301.055 252.438,300.195 252.442 C 299.336 252.447,299.030 252.527,299.516 252.620 M303.027 253.017 C 303.726 253.104,304.868 253.104,305.566 253.017 C 306.265 252.930,305.693 252.859,304.297 252.859 C 302.900 252.859,302.329 252.930,303.027 253.017 M308.984 253.125 L 306.836 253.388 308.864 253.452 C 309.979 253.487,311.000 253.340,311.133 253.125 C 311.266 252.910,311.320 252.763,311.254 252.798 C 311.187 252.833,310.166 252.980,308.984 253.125 M132.910 253.785 C 133.286 253.883,133.901 253.883,134.277 253.785 C 134.653 253.687,134.346 253.606,133.594 253.606 C 132.842 253.606,132.534 253.687,132.910 253.785 M204.100 265.898 C 204.744 266.002,205.417 266.290,205.595 266.539 C 205.814 266.845,205.868 266.802,205.761 266.406 C 205.664 266.046,205.090 265.799,204.267 265.765 C 203.042 265.715,203.028 265.726,204.100 265.898 M221.191 265.917 C 225.220 265.981,231.812 265.981,235.840 265.917 C 239.868 265.854,236.572 265.802,228.516 265.802 C 220.459 265.802,217.163 265.854,221.191 265.917 M266.504 267.077 C 267.095 267.166,268.062 267.166,268.652 267.077 C 269.243 266.987,268.760 266.914,267.578 266.914 C 266.396 266.914,265.913 266.987,266.504 267.077 M270.605 267.463 C 271.089 267.556,271.880 267.556,272.363 267.463 C 272.847 267.370,272.451 267.294,271.484 267.294 C 270.518 267.294,270.122 267.370,270.605 267.463 M274.322 267.858 C 274.916 267.948,275.794 267.946,276.275 267.853 C 276.755 267.760,276.270 267.687,275.195 267.690 C 274.121 267.693,273.728 267.769,274.322 267.858 M157.719 268.636 C 158.205 268.729,158.908 268.726,159.282 268.628 C 159.655 268.530,159.258 268.454,158.398 268.458 C 157.539 268.462,157.233 268.542,157.719 268.636 M154.204 269.026 C 154.690 269.120,155.393 269.116,155.766 269.018 C 156.140 268.921,155.742 268.844,154.883 268.849 C 154.023 268.853,153.718 268.933,154.204 269.026 M199.786 271.582 L 198.242 273.242 199.902 271.698 C 201.446 270.262,201.742 269.922,201.446 269.922 C 201.383 269.922,200.636 270.669,199.786 271.582 M300.645 274.902 C 300.545 275.063,301.721 275.147,303.259 275.089 C 308.283 274.897,308.863 274.742,304.808 274.675 C 302.619 274.639,300.745 274.741,300.645 274.902 M193.471 287.305 C 193.474 288.379,193.550 288.772,193.640 288.178 C 193.729 287.584,193.727 286.706,193.634 286.225 C 193.542 285.745,193.468 286.230,193.471 287.305 M76.156 287.482 C 76.644 287.791,76.618 287.974,75.976 288.746 L 75.224 289.648 76.136 288.809 C 77.026 287.989,76.982 287.103,76.051 287.115 C 75.765 287.119,75.805 287.260,76.156 287.482 M152.044 288.281 C 152.044 289.033,152.124 289.341,152.222 288.965 C 152.321 288.589,152.321 287.974,152.222 287.598 C 152.124 287.222,152.044 287.529,152.044 288.281 M228.280 294.531 C 228.280 297.646,228.341 298.921,228.415 297.363 C 228.489 295.806,228.489 293.257,228.415 291.699 C 228.341 290.142,228.280 291.416,228.280 294.531 M193.123 294.727 C 193.123 297.734,193.185 298.913,193.259 297.346 C 193.333 295.779,193.333 293.318,193.258 291.877 C 193.183 290.437,193.122 291.719,193.123 294.727 M94.262 295.898 C 94.264 297.188,94.337 297.668,94.424 296.966 C 94.511 296.264,94.509 295.209,94.420 294.622 C 94.331 294.035,94.259 294.609,94.262 295.898 M67.730 301.367 C 67.731 304.160,67.793 305.251,67.868 303.792 C 67.944 302.333,67.943 300.048,67.867 298.714 C 67.791 297.380,67.729 298.574,67.730 301.367 M93.891 301.953 C 93.891 303.994,93.957 304.829,94.037 303.809 C 94.118 302.788,94.118 301.118,94.037 300.098 C 93.957 299.077,93.891 299.912,93.891 301.953 M56.362 301.367 C 56.365 302.441,56.441 302.834,56.530 302.241 C 56.620 301.647,56.618 300.768,56.525 300.288 C 56.432 299.807,56.359 300.293,56.362 301.367 M309.721 302.848 C 309.892 303.018,311.598 303.105,313.512 303.041 L 316.992 302.924 313.201 302.732 C 311.116 302.626,309.550 302.678,309.721 302.848 M116.316 303.799 C 117.018 303.886,118.072 303.884,118.659 303.795 C 119.246 303.706,118.672 303.634,117.383 303.637 C 116.094 303.639,115.613 303.712,116.316 303.799 M26.074 308.104 C 28.706 308.172,33.013 308.172,35.645 308.104 C 38.276 308.037,36.123 307.981,30.859 307.981 C 25.596 307.981,23.442 308.037,26.074 308.104 M379.590 308.104 C 382.007 308.173,385.962 308.173,388.379 308.104 C 390.796 308.036,388.818 307.979,383.984 307.979 C 379.150 307.979,377.173 308.036,379.590 308.104 M113.770 319.434 C 164.849 319.488,248.433 319.488,299.512 319.434 C 350.591 319.379,308.799 319.334,206.641 319.334 C 104.482 319.334,62.690 319.379,113.770 319.434 " stroke="none" fill="#bcbcbc" fill-rule="evenodd"></path></g></svg>