<svg xmlns:xlink="http://www.w3.org/1999/xlink" width="377" xmlns="http://www.w3.org/2000/svg" height="377" id="screenshot-1fc87ef3-cd6c-80f5-8003-d5fb524533ad" viewBox="0 0 377 377" style="-webkit-print-color-adjust: exact;" fill="none" version="1.1"><g id="shape-1fc87ef3-cd6c-80f5-8003-d5fb524533ad" rx="0" ry="0"><g id="shape-1fc87ef3-cd6c-80f5-8003-d5fb524533ae"><g class="fills" id="fills-1fc87ef3-cd6c-80f5-8003-d5fb524533ae"><rect rx="40" ry="40" x="0" y="0" transform="matrix(1.000000, 0.000000, 0.000000, 1.000000, 0.000000, 0.000000)" width="377" height="377" style="fill: rgb(255, 255, 255); fill-opacity: 1;"/></g></g><g id="shape-1fc87ef3-cd6c-80f5-8003-d5fb524533af"><g class="fills" id="fills-1fc87ef3-cd6c-80f5-8003-d5fb524533af"><path fill-rule="evenodd" rx="0" ry="0" d="M163.154,69.158C142.830,69.788,126.397,71.443,108.153,74.701C103.853,75.469,95.961,77.283,90.318,78.799C83.503,80.633,73.663,83.956,69.658,85.776C68.792,86.171,67.548,86.706,66.895,86.969C65.074,87.698,60.176,90.119,57.484,91.618C45.103,98.515,35.917,107.011,31.594,115.568C29.948,118.825,29.986,119.990,31.770,121.045C33.358,121.984,34.023,121.485,35.782,118.034C39.746,110.263,48.446,102.169,59.150,96.297C60.113,95.767,61.200,95.164,61.568,94.953C63.842,93.642,71.372,90.247,75.068,88.863C76.167,88.451,77.667,87.889,78.400,87.615C79.614,87.160,83.012,86.050,87.152,84.754C88.022,84.480,89.859,83.966,91.234,83.606C92.609,83.250,94.561,82.732,95.567,82.459C96.576,82.185,98.152,81.801,99.068,81.602C99.986,81.404,101.936,80.982,103.401,80.663C107.438,79.784,110.866,79.116,112.903,78.815C113.912,78.664,115.861,78.355,117.236,78.129C120.400,77.607,124.796,76.964,127.486,76.632C129.842,76.341,135.879,75.730,139.987,75.369C141.041,75.276,142.692,75.123,143.655,75.032C150.184,74.409,161.947,73.892,173.599,73.714L181.129,73.598L181.573,73.179C182.891,71.938,182.645,69.690,181.134,69.160C180.527,68.947,170.016,68.947,163.154,69.158ZZM162.654,77.062C154.326,77.358,147.226,77.885,135.561,79.068C127.589,79.877,123.873,80.394,113.884,82.087C109.922,82.758,101.961,84.445,98.235,85.402C96.586,85.824,94.147,86.454,92.817,86.796C83.200,89.282,68.534,94.918,62.650,98.392C62.055,98.743,61.079,99.278,60.484,99.577C59.380,100.137,56.507,101.882,55.150,102.819C50.154,106.273,47.806,108.156,45.211,110.798C40.512,115.580,37.870,119.784,36.989,123.883C36.633,125.546,36.447,141.446,36.786,141.446C36.858,141.446,37.142,141.210,37.410,140.926C42.035,136.021,60.374,127.206,72.400,124.107C73.133,123.916,74.709,123.476,75.901,123.127C77.093,122.778,78.892,122.296,79.900,122.057C85.890,120.626,89.789,119.737,91.402,119.433C92.411,119.244,94.810,118.787,96.734,118.418C100.696,117.657,104.560,116.999,106.653,116.725C107.431,116.625,109.869,116.283,112.070,115.969C119.853,114.857,122.132,114.591,130.735,113.792C141.728,112.772,144.704,112.541,154.570,111.933C157.024,111.783,166.960,111.376,173.572,111.155C178.392,110.994,180.991,110.994,185.472,111.150C188.626,111.260,191.236,111.323,191.271,111.285C191.306,111.250,191.138,110.776,190.895,110.233C189.730,107.629,187.826,102.648,186.654,99.158C185.131,94.604,183.831,90.794,182.065,85.704C181.360,83.669,180.399,80.851,179.927,79.442L179.072,76.881L172.739,76.906C169.253,76.918,164.717,76.989,162.654,77.062ZZM150.914,89.054C151.255,89.305,151.426,97.304,151.112,98.424C150.949,99.012,150.146,99.323,148.164,99.567C145.168,99.934,144.995,99.615,145.108,93.956C145.176,90.523,145.306,89.893,146.054,89.398C146.869,88.860,150.319,88.614,150.914,89.054ZZM113.505,94.195C113.688,94.870,113.673,103.090,113.488,103.442C113.224,103.937,111.566,104.469,109.950,104.575L108.497,104.670L108.289,104.183C108.003,103.517,107.993,95.657,108.276,95.001C108.758,93.886,113.232,93.198,113.505,94.195ZZM81.361,102.925C81.659,102.957,81.499,110.956,81.192,111.308C80.590,111.996,77.677,112.730,77.000,112.365C76.616,112.157,76.450,105.175,76.806,104.228C77.022,103.658,79.720,102.741,80.819,102.864C81.047,102.890,81.290,102.917,81.361,102.925ZZM179.822,114.716C166.772,114.834,162.953,114.932,153.571,115.387C145.319,115.789,128.926,117.145,121.986,117.999C100.673,120.623,83.689,124.255,69.151,129.295C60.931,132.143,52.044,136.194,47.449,139.188C46.835,139.587,46.092,140.039,45.798,140.193C40.035,143.199,31.363,152.027,29.695,156.582C28.310,160.375,32.375,161.836,34.234,158.215C36.547,153.707,41.789,148.498,47.984,144.550C48.395,144.289,49.108,143.829,49.567,143.535C52.704,141.509,59.135,138.329,64.173,136.312C70.476,133.793,80.643,130.533,86.151,129.270C87.114,129.049,89.545,128.479,91.553,128.004C93.563,127.530,96.225,126.960,97.472,126.736C98.716,126.513,101.188,126.060,102.962,125.726C106.944,124.981,110.564,124.380,112.652,124.122C113.523,124.014,115.811,123.707,117.736,123.441C128.502,121.954,141.838,120.814,157.987,120.000C165.131,119.641,170.709,119.536,187.329,119.440C208.647,119.320,206.863,119.448,207.412,117.996C207.907,116.690,207.463,115.414,206.331,114.899C205.596,114.565,200.384,114.530,179.822,114.716ZZM55.649,118.576C55.649,122.575,55.376,123.187,53.288,123.818C52.425,124.079,52.468,124.237,52.443,120.570C52.415,116.447,52.393,116.494,54.734,115.527C55.672,115.138,55.649,115.068,55.649,118.576ZZM203.907,122.896C203.355,123.109,201.769,123.180,194.821,123.295C154.615,123.968,132.449,125.488,107.819,129.263C77.085,133.969,54.919,141.817,43.781,151.941C40.725,154.716,38.186,158.328,37.207,161.284L36.733,162.715L36.650,178.912C36.602,187.820,36.597,195.141,36.635,195.179C36.673,195.219,37.423,194.860,38.301,194.383C44.085,191.238,50.222,188.908,60.098,186.102C62.223,185.500,64.662,184.857,65.515,184.678C66.368,184.500,68.418,184.040,70.067,183.659C73.266,182.918,75.512,182.448,77.401,182.134C78.043,182.026,79.730,181.722,81.152,181.456C85.373,180.673,90.095,179.922,93.236,179.532C94.335,179.397,96.398,179.131,97.818,178.942C105.185,177.965,111.164,177.352,120.819,176.586C149.747,174.291,187.573,173.583,218.739,174.753C221.398,174.851,223.885,174.909,224.266,174.876L224.956,174.821L224.532,173.728C224.299,173.126,223.777,171.802,223.373,170.785C222.967,169.768,222.374,168.218,222.053,167.337C221.735,166.460,220.984,164.491,220.390,162.967C219.795,161.440,218.751,158.755,218.069,156.997C217.389,155.241,216.267,152.346,215.577,150.567C214.887,148.789,214.323,147.280,214.323,147.217C214.323,147.154,213.728,145.582,213.000,143.726C212.273,141.870,211.083,138.801,210.358,136.905C207.944,130.606,206.853,127.763,205.917,125.350C205.408,124.036,204.989,122.883,204.989,122.788C204.989,122.554,204.710,122.582,203.907,122.896ZZM189.803,128.250C196.224,129.777,201.042,138.530,201.975,150.357C202.113,152.089,202.244,161.975,202.176,165.277L202.156,166.161L188.323,166.161L174.487,166.161L174.487,159.488C174.487,146.215,175.652,139.994,179.290,133.826C181.704,129.730,186.140,127.379,189.803,128.250ZZM149.040,129.589C156.795,131.628,160.489,141.810,160.291,160.613L160.238,165.574L150.405,165.852C144.995,166.006,139.121,166.139,137.352,166.146L134.135,166.161L134.165,160.149C134.218,149.076,134.590,145.871,136.504,139.931C138.880,132.558,144.064,128.281,149.040,129.589ZZM114.762,133.876C120.616,135.923,123.153,143.907,123.153,160.284L123.153,166.297L122.360,166.392C121.926,166.445,121.008,166.530,120.320,166.583C118.993,166.681,109.375,167.543,106.153,167.851C105.097,167.952,103.504,168.143,102.610,168.273C101.717,168.407,100.949,168.515,100.902,168.515C100.741,168.515,100.819,153.795,100.990,151.954C102.269,138.156,107.473,131.325,114.762,133.876ZZM87.079,140.883C92.042,142.566,94.175,149.312,94.217,163.471L94.235,169.441L93.236,169.642C91.924,169.906,89.766,170.298,87.902,170.612C84.221,171.227,83.059,171.453,80.329,172.073C76.011,173.055,76.332,173.409,76.312,167.673C76.242,149.179,80.477,138.643,87.079,140.883ZZM67.302,148.897C70.200,150.831,71.475,157.690,71.477,171.373C71.480,174.128,71.472,174.153,70.564,174.374C67.999,174.997,64.858,175.881,62.690,176.591C61.290,177.051,60.033,177.428,59.897,177.428C59.358,177.428,59.624,162.324,60.244,157.760C61.295,150.012,63.960,146.665,67.302,148.897ZZM50.200,158.024C52.724,159.310,53.532,163.085,53.554,173.688L53.567,179.786L51.818,180.519C50.854,180.921,48.804,181.866,47.264,182.616C45.721,183.370,44.406,183.985,44.341,183.985C44.147,183.985,44.265,170.273,44.479,168.095C45.189,160.774,47.525,156.663,50.200,158.024ZZM166.905,178.282C145.517,178.676,122.089,180.047,106.901,181.795C97.994,182.820,96.305,183.026,93.650,183.410C88.775,184.113,78.728,185.821,75.901,186.429C68.730,187.966,66.218,188.541,64.150,189.114C62.913,189.455,60.828,190.025,59.521,190.379C41.869,195.141,26.413,204.800,29.364,209.223C30.438,210.830,32.342,210.614,33.717,208.723C36.756,204.547,44.501,200.297,55.983,196.505C60.570,194.991,67.688,193.067,71.753,192.240C73.118,191.964,75.622,191.439,77.318,191.075C80.372,190.420,81.363,190.244,88.318,189.121C95.648,187.941,99.871,187.391,108.402,186.509C110.145,186.328,112.993,186.032,114.735,185.849C118.870,185.414,125.574,184.879,129.654,184.661C131.441,184.563,134.140,184.410,135.653,184.317C160.311,182.802,187.600,182.458,215.238,183.317C231.457,183.819,253.498,185.269,263.743,186.504C264.475,186.592,266.613,186.821,268.492,187.014C272.163,187.388,279.272,188.320,282.659,188.870C283.806,189.056,286.280,189.438,288.159,189.716C295.955,190.874,310.739,194.182,317.132,196.201C318.477,196.625,319.952,197.075,320.409,197.201C328.295,199.343,339.235,205.001,342.884,208.821C345.071,211.109,347.658,210.647,347.661,207.970C347.663,204.383,335.697,196.957,323.912,193.230C323.270,193.027,321.475,192.449,319.925,191.947C318.374,191.444,315.674,190.663,313.923,190.214C312.174,189.762,309.881,189.161,308.827,188.878C307.773,188.594,305.786,188.137,304.411,187.860C303.036,187.584,300.464,187.054,298.698,186.680C287.469,184.309,266.445,181.544,251.408,180.459C222.756,178.395,196.942,177.729,166.905,178.282ZZM169.989,186.956C165.025,187.044,152.999,187.371,149.155,187.521C137.992,187.961,137.166,188.001,128.987,188.528C118.797,189.181,103.386,190.769,94.569,192.070C91.452,192.529,88.338,192.979,87.651,193.069C86.145,193.263,84.738,193.519,79.817,194.486C77.755,194.893,75.391,195.352,74.568,195.505C65.292,197.243,51.309,201.751,45.001,205.034C41.420,206.900,37.297,209.705,36.773,210.635C36.625,210.901,36.520,254.603,36.668,254.603C36.725,254.603,37.476,254.339,38.334,254.015C39.809,253.458,43.781,252.300,47.899,251.223C51.145,250.374,59.749,248.673,63.899,248.061C74.066,246.561,82.843,245.494,88.903,245.019C90.092,244.926,93.244,244.665,95.901,244.434C104.698,243.678,112.780,243.143,120.152,242.834C129.105,242.457,136.863,242.169,142.654,241.998C145.999,241.900,151.288,241.742,154.404,241.646C163.407,241.372,199.862,241.254,209.490,241.468C222.392,241.757,230.645,241.978,235.407,242.164C237.791,242.257,242.666,242.445,246.241,242.583C257.728,243.025,267.602,243.638,278.993,244.615C281.696,244.846,285.221,245.142,286.827,245.275C291.112,245.629,295.707,246.144,301.076,246.873C302.361,247.046,304.647,247.345,306.160,247.538C310.245,248.053,313.936,248.638,318.409,249.482C324.775,250.683,325.736,250.886,328.910,251.690C330.561,252.109,332.473,252.591,333.161,252.762C334.827,253.176,337.313,253.952,338.723,254.497C339.353,254.741,339.933,254.939,340.016,254.939C340.098,254.939,340.161,245.542,340.161,233.009L340.161,211.077L338.452,209.836C336.367,208.321,332.804,206.207,331.045,205.441C330.330,205.127,329.031,204.554,328.160,204.165C323.621,202.138,314.987,199.315,308.910,197.869C307.535,197.542,305.322,197.010,303.992,196.683C299.179,195.500,288.636,193.577,280.993,192.484C270.239,190.947,265.090,190.372,251.659,189.204C231.089,187.421,196.964,186.479,169.989,186.956ZZM190.383,193.330C195.680,194.712,199.767,200.398,201.599,208.939C202.060,211.079,202.331,220.731,202.191,230.008L202.143,233.238L191.274,233.160C185.297,233.117,179.074,233.082,177.446,233.082L174.487,233.082L174.487,223.624C174.490,213.882,174.598,211.519,175.170,208.643C177.245,198.250,183.826,191.623,190.383,193.330ZZM149.020,194.767C150.746,195.139,153.235,196.688,154.477,198.168C156.545,200.631,157.950,203.329,158.996,206.852C160.100,210.577,160.358,214.259,160.286,225.432L160.238,233.333L157.822,233.366C153.521,233.424,136.431,233.785,135.498,233.838C134.999,233.866,134.492,233.851,134.374,233.803C134.100,233.697,134.063,218.699,134.321,214.201C135.036,201.769,141.547,193.160,149.020,194.767ZZM231.452,194.830C236.303,195.985,240.495,202.113,242.094,210.383C242.330,211.599,242.380,213.483,242.443,222.976L242.515,234.139L239.961,234.039C238.556,233.986,234.107,233.856,230.075,233.753C226.040,233.647,221.316,233.512,219.572,233.449L216.405,233.333L216.357,225.852C216.260,211.338,217.098,205.765,220.096,201.026C223.343,195.895,227.164,193.810,231.452,194.830ZZM113.897,197.510C117.522,198.610,121.256,204.200,122.380,210.215C122.526,211.001,122.734,212.061,122.839,212.568C122.967,213.186,123.055,216.973,123.103,223.943L123.175,234.393L121.289,234.494C116.767,234.740,113.046,234.956,107.985,235.267C105.007,235.453,102.174,235.604,101.695,235.604L100.819,235.604L100.819,225.384C100.819,219.440,100.889,214.570,100.990,213.741C102.322,202.635,107.857,195.676,113.897,197.510ZZM267.501,197.874C270.941,199.519,274.075,204.614,275.139,210.298C275.330,211.315,275.571,212.563,275.679,213.073C275.807,213.691,275.894,217.619,275.942,224.970L276.015,235.940L275.628,235.940C275.415,235.938,272.128,235.749,268.324,235.518C264.520,235.287,260.022,235.023,258.325,234.928C256.629,234.835,254.843,234.715,254.353,234.662L253.465,234.569L253.538,224.450C253.583,217.825,253.676,213.899,253.806,213.073C255.633,201.412,261.434,194.975,267.501,197.874ZZM87.272,201.568C90.797,203.306,93.452,209.361,94.140,217.222C94.406,220.253,94.381,236.098,94.110,236.189C93.997,236.226,91.952,236.458,89.568,236.699C87.184,236.940,83.697,237.319,81.817,237.545C79.938,237.771,77.941,237.957,77.379,237.957L76.357,237.957L76.270,235.815C76.011,229.508,76.387,218.284,77.000,214.188C78.360,205.064,82.946,199.431,87.272,201.568ZZM292.736,201.314C295.978,202.540,298.677,207.663,299.774,214.670C300.030,216.310,300.333,237.595,300.108,238.185C300.015,238.429,300.281,238.449,291.910,237.535C288.977,237.216,285.713,236.874,284.659,236.779C283.209,236.646,282.692,236.535,282.534,236.324C282.067,235.697,282.371,217.513,282.900,214.334C284.433,205.132,288.518,199.722,292.736,201.314ZZM66.782,205.448C69.026,206.882,70.892,213.020,71.314,220.349C71.505,223.687,71.540,238.288,71.357,238.562C71.289,238.665,70.709,238.796,70.067,238.856C68.850,238.972,63.970,239.745,61.423,240.227C60.457,240.411,59.887,240.451,59.782,240.343C59.433,239.991,59.727,218.993,60.113,216.516C61.456,207.955,64.027,203.685,66.782,205.448ZZM311.873,205.230C314.164,206.199,316.226,211.853,316.824,218.789C316.989,220.711,317.069,240.684,316.911,240.843C316.866,240.888,314.297,240.524,311.203,240.034C308.109,239.544,305.520,239.142,305.452,239.140C305.196,239.130,305.309,220.206,305.580,217.870C306.508,209.863,308.498,205.318,311.206,205.016C311.278,205.009,311.579,205.104,311.873,205.230ZZM50.200,210.680C51.000,211.446,52.079,213.940,52.558,216.135C53.544,220.633,53.552,220.736,53.559,231.653L53.567,241.742L53.150,241.789C52.922,241.817,50.874,242.299,48.601,242.862C46.328,243.424,44.413,243.829,44.351,243.763C44.140,243.552,44.238,221.381,44.459,219.661C44.797,217.019,46.313,212.496,47.362,210.994C48.074,209.976,49.324,209.838,50.200,210.680ZZM329.041,210.680C329.966,211.571,331.146,214.653,331.730,217.697C332.328,220.819,332.373,221.788,332.448,233.062L332.521,244.391L332.049,244.271C331.141,244.037,324.572,242.483,324.077,242.382C322.853,242.136,322.948,243.085,323.044,232.268C323.129,222.353,323.217,220.806,323.909,217.207C325.023,211.416,327.086,208.791,329.041,210.680ZZM164.320,245.469C140.822,245.735,123.198,246.363,105.985,247.551C89.979,248.653,86.015,249.030,71.525,250.826C63.744,251.793,54.192,253.533,47.909,255.135C35.983,258.172,30.034,261.221,30.360,264.129C30.578,266.080,32.498,266.937,34.088,265.792C36.510,264.049,37.493,263.471,39.114,262.836C43.058,261.291,45.716,260.520,52.899,258.827C54.796,258.380,59.737,257.484,65.985,256.451C68.654,256.012,72.488,255.487,75.150,255.201C76.387,255.065,79.015,254.769,80.984,254.538C88.251,253.689,94.443,253.131,101.652,252.677C103.805,252.541,108.457,252.240,111.985,252.006C161.716,248.736,248.178,249.756,288.076,254.083C301.166,255.502,305.138,256.004,311.494,257.047C318.520,258.199,319.872,258.446,322.660,259.086C324.082,259.412,326.180,259.892,327.327,260.153C333.419,261.535,338.026,263.155,341.378,265.096C344.519,266.917,346.788,266.058,346.359,263.207C345.937,260.377,332.797,255.939,316.410,253.094C307.743,251.587,305.821,251.305,298.595,250.477C295.764,250.153,292.538,249.781,291.429,249.650C284.160,248.796,268.748,247.626,253.741,246.787C233.979,245.685,195.486,245.117,164.320,245.469ZZM162.905,254.101C151.476,254.249,134.002,254.754,125.070,255.198C103.273,256.278,98.736,256.602,82.818,258.225C75.958,258.923,71.296,259.523,66.484,260.322C65.430,260.495,63.443,260.801,62.068,260.997C57.049,261.715,47.994,263.833,43.671,265.297C40.401,266.404,39.112,266.969,37.523,267.992L36.648,268.557L36.690,288.591L36.733,308.627L157.071,308.675C223.258,308.703,291.097,308.733,307.826,308.743C342.956,308.765,340.856,308.843,340.588,307.500C340.530,307.213,340.412,299.717,340.324,290.839C340.236,281.960,340.144,273.336,340.121,271.671L340.078,268.645L338.329,267.763C336.182,266.686,328.765,264.255,326.160,263.775C325.839,263.717,325.091,263.561,324.494,263.428C319.922,262.419,318.633,262.150,316.578,261.773C313.220,261.160,303.297,259.684,298.409,259.068C295.192,258.664,283.771,257.544,276.993,256.966C270.470,256.414,268.889,256.308,260.576,255.871C229.428,254.239,197.426,253.659,162.905,254.101ZZM192.322,262.758C196.791,263.988,200.680,268.152,201.822,272.932C202.156,274.331,202.489,300.234,202.206,302.650L202.121,303.366L188.298,303.366L174.475,303.366L174.528,288.528L174.580,273.688L174.962,272.434C177.305,264.714,184.614,260.641,192.322,262.758ZZM150.234,263.426C155.092,264.669,158.881,268.632,159.944,273.582C160.185,274.705,160.225,276.641,160.278,289.116L160.341,303.368L147.288,303.323L134.236,303.280L134.193,290.502C134.145,276.503,134.223,274.403,134.883,272.344C136.258,268.042,140.049,264.373,144.069,263.456C146.583,262.883,148.079,262.876,150.234,263.426ZZM232.928,263.556C237.479,264.900,241.228,269.077,242.254,273.939C242.440,274.820,242.485,277.794,242.488,289.201L242.490,303.368L229.448,303.323L216.405,303.280L216.360,291.007C216.290,273.391,216.393,272.442,218.754,268.896C220.826,265.777,223.734,263.890,227.656,263.117C228.652,262.921,231.601,263.167,232.928,263.556ZZM114.828,265.171C118.493,266.246,121.507,269.546,122.684,273.773C123.078,275.190,123.301,286.059,123.175,297.775L123.115,303.366L111.857,303.366L100.596,303.366L100.711,289.620C100.801,278.829,100.877,275.639,101.060,274.780C102.616,267.482,108.565,263.330,114.828,265.171ZZM267.717,265.191C271.225,266.206,274.243,269.556,275.282,273.580C275.784,275.531,275.970,280.976,275.957,293.360C275.947,302.796,275.912,303.268,275.242,303.323C273.328,303.479,253.932,303.373,253.766,303.205C253.475,302.911,253.498,276.832,253.791,275.127C254.760,269.461,258.220,265.774,263.492,264.795C264.287,264.646,266.580,264.862,267.717,265.191ZZM88.118,267.751C90.632,268.805,92.832,271.792,93.856,275.539C94.220,276.865,94.225,277.071,94.280,290.125L94.333,303.368L85.450,303.326L76.568,303.280L76.553,291.680C76.538,275.863,76.608,275.061,78.327,271.990C80.683,267.788,84.384,266.183,88.118,267.751ZZM292.344,267.218C295.840,267.886,298.703,271.103,299.684,275.463C300.017,276.945,300.331,302.241,300.027,303.155C299.942,303.414,296.118,303.446,294.046,303.205C293.253,303.112,291.960,303.105,290.954,303.185C290.006,303.263,287.710,303.285,285.853,303.238L282.478,303.147L282.536,290.015C282.604,275.338,282.539,276.172,283.841,272.957C285.005,270.081,286.686,268.328,288.992,267.582C289.589,267.391,290.189,267.198,290.327,267.153C290.749,267.017,291.406,267.040,292.344,267.218ZZM66.953,270.084C68.689,270.960,69.808,272.668,70.717,275.827C71.382,278.148,71.482,280.293,71.485,292.225L71.485,303.366L65.568,303.366L59.649,303.366L59.649,291.718C59.649,277.467,59.729,276.651,61.415,273.135C62.896,270.051,64.803,268.999,66.953,270.084ZZM312.264,269.928C314.016,270.589,315.300,272.455,316.244,275.714C316.861,277.839,317.014,281.694,316.957,293.614L316.909,303.280L314.410,303.366C310.852,303.484,305.655,303.295,305.500,303.039C305.317,302.743,305.480,279.655,305.675,277.977C306.358,272.128,309.128,268.743,312.264,269.928ZZM50.272,273.226C51.830,274.298,53.010,276.887,53.479,280.275C53.599,281.159,53.722,297.007,53.652,303.157C53.652,303.326,52.651,303.361,48.942,303.326L44.233,303.280L44.195,294.453C44.137,281.059,44.343,278.407,45.658,275.717C46.985,272.995,48.636,272.103,50.272,273.226ZZM328.795,273.002C329.761,273.512,331.239,275.503,331.823,277.081C332.415,278.673,332.531,281.112,332.433,289.997C332.383,294.530,332.338,299.352,332.335,300.716L332.328,303.198L327.761,303.198C324.258,303.198,323.179,303.147,323.124,302.987C322.840,302.155,323.307,279.160,323.633,277.945C324.622,274.250,326.945,272.025,328.795,273.002ZZ" style="-webkit-print-color-adjust: exact; fill: rgb(0, 0, 0);"/></g></g></g></svg>